<svg xmlns="http://www.w3.org/2000/svg" xmlns:xlink="http://www.w3.org/1999/xlink" width="1440" zoomAndPan="magnify" viewBox="0 0 1080 149.999998" height="200" preserveAspectRatio="xMidYMid meet" version="1.0"><defs><clipPath id="b9dbd68005"><path d="M 789.878906 0 L 1080 0 L 1080 150 L 789.878906 150 Z M 789.878906 0 " clip-rule="nonzero"/></clipPath><clipPath id="f99d0ae18c"><path d="M 934.941406 0 C 854.824219 0 789.878906 64.945312 789.878906 145.058594 C 789.878906 225.175781 854.824219 290.121094 934.941406 290.121094 C 1015.054688 290.121094 1080 225.175781 1080 145.058594 C 1080 64.945312 1015.054688 0 934.941406 0 " clip-rule="nonzero"/></clipPath><clipPath id="1a0e554a16"><path d="M 833.804688 40.265625 L 1036.074219 40.265625 L 1036.074219 150 L 833.804688 150 Z M 833.804688 40.265625 " clip-rule="nonzero"/></clipPath><clipPath id="15b3c11c7d"><path d="M 934.941406 40.265625 C 879.085938 40.265625 833.804688 87.46875 833.804688 145.699219 C 833.804688 203.929688 879.085938 251.136719 934.941406 251.136719 C 990.796875 251.136719 1036.074219 203.929688 1036.074219 145.699219 C 1036.074219 87.46875 990.796875 40.265625 934.941406 40.265625 " clip-rule="nonzero"/></clipPath><clipPath id="e2a2c5171e"><path d="M 870.613281 75 L 1002 75 L 1002 150 L 870.613281 150 Z M 870.613281 75 " clip-rule="nonzero"/></clipPath><clipPath id="0c21e26b83"><path d="M 936.167969 75 C 899.964844 75 870.613281 111.328125 870.613281 156.140625 C 870.613281 200.953125 899.964844 237.28125 936.167969 237.28125 C 972.375 237.28125 1001.722656 200.953125 1001.722656 156.140625 C 1001.722656 111.328125 972.375 75 936.167969 75 " clip-rule="nonzero"/></clipPath></defs><g clip-path="url(#b9dbd68005)"><g clip-path="url(#f99d0ae18c)"><path fill="#4a00c6" d="M 789.878906 0 L 1080 0 L 1080 290.121094 L 789.878906 290.121094 Z M 789.878906 0 " fill-opacity="1" fill-rule="nonzero"/></g></g><g clip-path="url(#1a0e554a16)"><g clip-path="url(#15b3c11c7d)"><path fill="#5e00ef" d="M 833.804688 40.265625 L 1036.074219 40.265625 L 1036.074219 250.960938 L 833.804688 250.960938 Z M 833.804688 40.265625 " fill-opacity="1" fill-rule="nonzero"/></g></g><g clip-path="url(#e2a2c5171e)"><g clip-path="url(#0c21e26b83)"><path fill="#6903ff" d="M 870.613281 75 L 1001.695312 75 L 1001.695312 237.203125 L 870.613281 237.203125 Z M 870.613281 75 " fill-opacity="1" fill-rule="nonzero"/></g></g></svg>