<svg xmlns="http://www.w3.org/2000/svg" xmlns:xlink="http://www.w3.org/1999/xlink" width="1200" zoomAndPan="magnify" viewBox="0 0 900 299.999988" height="400" preserveAspectRatio="xMidYMid meet" version="1.0"><defs><clipPath id="74ba98b7ee"><path d="M 65.046875 58.855469 L 94 58.855469 L 94 96 L 65.046875 96 Z M 65.046875 58.855469 " clip-rule="nonzero"/></clipPath><clipPath id="09ea154653"><path d="M 77 58.855469 L 152.796875 58.855469 L 152.796875 150.355469 L 77 150.355469 Z M 77 58.855469 " clip-rule="nonzero"/></clipPath><clipPath id="f98fe68086"><path d="M 242 36.667969 L 262 36.667969 L 262 69 L 242 69 Z M 242 36.667969 " clip-rule="nonzero"/></clipPath><clipPath id="ecaee06ecd"><path d="M 242 36.667969 L 255 36.667969 L 255 61 L 242 61 Z M 242 36.667969 " clip-rule="nonzero"/></clipPath><clipPath id="c836f5e4b1"><path d="M 134.351562 148.074219 L 320.742188 148.074219 L 320.742188 256.75 L 134.351562 256.75 Z M 134.351562 148.074219 " clip-rule="nonzero"/></clipPath><clipPath id="dced237cb5"><path d="M 118.304688 59 L 240 59 L 240 207 L 118.304688 207 Z M 118.304688 59 " clip-rule="nonzero"/></clipPath><clipPath id="0131737b9b"><path d="M 192.699219 264.710938 L 232.957031 264.710938 L 232.957031 289.417969 L 192.699219 289.417969 Z M 192.699219 264.710938 " clip-rule="nonzero"/></clipPath><clipPath id="942423c5b6"><path d="M 325 155.816406 L 332 155.816406 L 332 227 L 325 227 Z M 325 155.816406 " clip-rule="nonzero"/></clipPath><clipPath id="cd3baa9596"><path d="M 321.515625 222 L 335 222 L 335 229.316406 L 321.515625 229.316406 Z M 321.515625 222 " clip-rule="nonzero"/></clipPath></defs><g clip-path="url(#74ba98b7ee)"><path fill="#5400cf" d="M 93.265625 71.476562 L 93.265625 95.140625 L 68.214844 95.140625 C 66.488281 95.132812 65.089844 93.726562 65.085938 91.984375 L 65.085938 71.476562 C 65.085938 64.507812 70.691406 58.855469 77.609375 58.855469 C 84.53125 58.855469 93.265625 64.503906 93.265625 71.476562 Z M 93.265625 71.476562 " fill-opacity="1" fill-rule="nonzero"/></g><g clip-path="url(#09ea154653)"><path fill="#baa5ff" d="M 152.761719 71.476562 L 152.761719 147.199219 C 152.757812 148.941406 151.359375 150.351562 149.632812 150.355469 L 93.265625 150.355469 C 91.539062 150.351562 90.140625 148.941406 90.136719 147.199219 L 90.136719 71.476562 C 90.136719 64.507812 84.527344 58.855469 77.609375 58.855469 L 140.238281 58.855469 C 147.15625 58.855469 152.761719 64.507812 152.761719 71.476562 Z M 152.761719 71.476562 " fill-opacity="1" fill-rule="nonzero"/></g><path fill="#f8f9fb" d="M 146.5 134.578125 L 146.5 142.46875 C 146.5 143.339844 145.800781 144.042969 144.933594 144.042969 L 118.316406 144.042969 L 118.316406 134.578125 Z M 146.5 134.578125 " fill-opacity="1" fill-rule="nonzero"/><path fill="#ecf0f1" d="M 118.316406 134.578125 L 146.5 134.578125 L 146.5 125.113281 L 118.316406 125.113281 Z M 118.316406 134.578125 " fill-opacity="1" fill-rule="nonzero"/><path fill="#f8f9fb" d="M 118.316406 125.113281 L 146.5 125.113281 L 146.5 115.648438 L 118.316406 115.648438 Z M 118.316406 125.113281 " fill-opacity="1" fill-rule="nonzero"/><path fill="#ecf0f1" d="M 118.316406 115.648438 L 146.5 115.648438 L 146.5 106.183594 L 118.316406 106.183594 Z M 118.316406 115.648438 " fill-opacity="1" fill-rule="nonzero"/><path fill="#f8f9fb" d="M 146.5 98.292969 L 146.5 106.183594 L 118.316406 106.183594 L 118.316406 96.71875 L 144.933594 96.71875 C 145.800781 96.71875 146.5 97.421875 146.5 98.292969 Z M 146.5 98.292969 " fill-opacity="1" fill-rule="nonzero"/><path fill="#8b6ded" d="M 118.316406 115.648438 L 118.316406 144.042969 L 97.964844 144.042969 C 97.097656 144.042969 96.398438 143.339844 96.398438 142.46875 L 96.398438 115.648438 Z M 118.316406 115.648438 " fill-opacity="1" fill-rule="nonzero"/><path fill="#f8f9fb" d="M 96.398438 115.648438 L 118.316406 115.648438 L 118.316406 106.183594 L 96.398438 106.183594 Z M 96.398438 115.648438 " fill-opacity="1" fill-rule="nonzero"/><path fill="#ecf0f1" d="M 118.316406 96.71875 L 118.316406 106.183594 L 96.398438 106.183594 L 96.398438 98.292969 C 96.398438 97.421875 97.097656 96.71875 97.964844 96.71875 Z M 118.316406 96.71875 " fill-opacity="1" fill-rule="nonzero"/><path fill="#5400cf" d="M 107.359375 139.3125 C 101.175781 139.3125 99.488281 132.214844 102.660156 132.214844 C 103.523438 132.214844 104.226562 132.917969 104.226562 133.789062 C 104.226562 135.074219 105.660156 136.15625 107.359375 136.15625 C 109.054688 136.15625 110.488281 135.074219 110.488281 133.789062 C 110.488281 132.507812 109.054688 131.425781 107.359375 131.425781 C 104.121094 131.625 101.328125 129.160156 101.09375 125.902344 C 101.328125 122.644531 104.121094 120.183594 107.359375 120.382812 C 113.539062 120.382812 115.226562 127.480469 112.054688 127.480469 C 111.191406 127.480469 110.488281 126.773438 110.488281 125.902344 C 110.488281 124.621094 109.054688 123.535156 107.359375 123.535156 C 105.660156 123.535156 104.226562 124.621094 104.226562 125.902344 C 104.226562 127.183594 105.660156 128.269531 107.359375 128.269531 C 110.59375 128.070312 113.386719 130.53125 113.621094 133.789062 C 113.386719 137.050781 110.59375 139.511719 107.359375 139.3125 Z M 107.359375 139.3125 " fill-opacity="1" fill-rule="nonzero"/><path fill="#5400cf" d="M 107.359375 140.890625 C 106.492188 140.890625 105.792969 140.183594 105.792969 139.3125 L 105.792969 120.382812 C 105.792969 119.511719 106.492188 118.804688 107.359375 118.804688 C 108.222656 118.804688 108.921875 119.511719 108.921875 120.382812 L 108.921875 139.3125 C 108.921875 140.183594 108.222656 140.890625 107.359375 140.890625 Z M 107.359375 140.890625 " fill-opacity="1" fill-rule="nonzero"/><path fill="#5400cf" d="M 116.75 68.320312 L 97.964844 68.320312 C 97.097656 68.320312 96.398438 67.613281 96.398438 66.742188 C 96.398438 65.871094 97.097656 65.164062 97.964844 65.164062 L 116.75 65.164062 C 117.617188 65.164062 118.316406 65.871094 118.316406 66.742188 C 118.316406 67.613281 117.617188 68.320312 116.75 68.320312 Z M 116.75 68.320312 " fill-opacity="1" fill-rule="nonzero"/><path fill="#5400cf" d="M 112.054688 74.632812 L 97.964844 74.632812 C 97.097656 74.632812 96.398438 73.925781 96.398438 73.054688 C 96.398438 72.183594 97.097656 71.476562 97.964844 71.476562 L 112.054688 71.476562 C 112.917969 71.476562 113.621094 72.183594 113.621094 73.054688 C 113.621094 73.925781 112.917969 74.632812 112.054688 74.632812 Z M 112.054688 74.632812 " fill-opacity="1" fill-rule="nonzero"/><path fill="#5400cf" d="M 124.582031 80.941406 L 97.964844 80.941406 C 97.097656 80.941406 96.398438 80.234375 96.398438 79.363281 C 96.398438 78.492188 97.097656 77.785156 97.964844 77.785156 L 124.582031 77.785156 C 125.445312 77.785156 126.144531 78.492188 126.144531 79.363281 C 126.144531 80.234375 125.445312 80.941406 124.582031 80.941406 Z M 124.582031 80.941406 " fill-opacity="1" fill-rule="nonzero"/><path fill="#5400cf" d="M 112.054688 87.25 L 97.964844 87.25 C 97.097656 87.25 96.398438 86.546875 96.398438 85.675781 C 96.398438 84.804688 97.097656 84.097656 97.964844 84.097656 L 112.054688 84.097656 C 112.917969 84.097656 113.621094 84.804688 113.621094 85.675781 C 113.621094 86.546875 112.917969 87.25 112.054688 87.25 Z M 112.054688 87.25 " fill-opacity="1" fill-rule="nonzero"/><path fill="#5400cf" d="M 144.933594 74.632812 L 118.316406 74.632812 C 117.453125 74.632812 116.75 73.925781 116.75 73.054688 C 116.75 72.183594 117.453125 71.476562 118.316406 71.476562 L 144.933594 71.476562 C 145.800781 71.476562 146.5 72.183594 146.5 73.054688 C 146.5 73.925781 145.800781 74.632812 144.933594 74.632812 Z M 144.933594 74.632812 " fill-opacity="1" fill-rule="nonzero"/><path fill="#5400cf" d="M 144.933594 80.941406 L 130.84375 80.941406 C 129.976562 80.941406 129.277344 80.234375 129.277344 79.363281 C 129.277344 78.492188 129.976562 77.785156 130.84375 77.785156 L 144.933594 77.785156 C 145.800781 77.785156 146.5 78.492188 146.5 79.363281 C 146.5 80.234375 145.800781 80.941406 144.933594 80.941406 Z M 144.933594 80.941406 " fill-opacity="1" fill-rule="nonzero"/><path fill="#5400cf" d="M 144.933594 87.25 L 118.316406 87.25 C 117.453125 87.25 116.75 86.546875 116.75 85.675781 C 116.75 84.804688 117.453125 84.097656 118.316406 84.097656 L 144.933594 84.097656 C 145.800781 84.097656 146.5 84.804688 146.5 85.675781 C 146.5 86.546875 145.800781 87.25 144.933594 87.25 Z M 144.933594 87.25 " fill-opacity="1" fill-rule="nonzero"/><path fill="#dfdbfc" d="M 272.847656 247.988281 C 268.964844 254.695312 275.855469 260.132812 288.234375 260.132812 C 300.613281 260.132812 313.792969 254.695312 317.671875 247.988281 C 321.550781 241.277344 314.664062 235.839844 302.285156 235.839844 C 289.90625 235.839844 276.726562 241.277344 272.847656 247.988281 " fill-opacity="1" fill-rule="nonzero"/><g clip-path="url(#f98fe68086)"><path fill="#e36196" d="M 251.601562 36.667969 L 242.136719 59.082031 L 247.378906 56.0625 L 247.410156 66.75 L 250.65625 68.652344 L 255.949219 61.824219 L 255.917969 51.140625 L 261.160156 48.117188 L 251.601562 36.667969 " fill-opacity="1" fill-rule="nonzero"/></g><path fill="#ff99b3" d="M 254.847656 38.574219 L 245.382812 60.984375 L 250.625 57.964844 L 250.65625 68.652344 L 259.195312 63.730469 L 259.164062 53.042969 L 264.40625 50.019531 L 254.847656 38.574219 " fill-opacity="1" fill-rule="nonzero"/><g clip-path="url(#ecaee06ecd)"><path fill="#e36196" d="M 251.601562 36.667969 L 254.847656 38.574219 L 245.382812 60.984375 L 242.136719 59.082031 L 251.601562 36.667969 " fill-opacity="1" fill-rule="nonzero"/></g><path fill="#6653bd" d="M 133.347656 39.824219 L 121.421875 68.074219 L 128.027344 64.265625 L 128.066406 77.734375 L 132.15625 80.132812 L 138.828125 71.53125 L 138.789062 58.0625 L 145.394531 54.253906 L 133.347656 39.824219 " fill-opacity="1" fill-rule="nonzero"/><path fill="#7761dc" d="M 137.4375 42.222656 L 125.511719 70.472656 L 132.117188 66.664062 L 132.15625 80.132812 L 142.917969 73.929688 L 142.878906 60.460938 L 149.484375 56.652344 L 137.4375 42.222656 " fill-opacity="1" fill-rule="nonzero"/><path fill="#6653bd" d="M 133.347656 39.824219 L 137.4375 42.222656 L 125.511719 70.472656 L 121.421875 68.074219 L 133.347656 39.824219 " fill-opacity="1" fill-rule="nonzero"/><g clip-path="url(#c836f5e4b1)"><path fill="#dfdbfc" d="M 318.839844 193.167969 L 209.753906 255.671875 C 206.96875 257.28125 202.152344 257.050781 198.996094 255.160156 L 136.941406 218.011719 C 133.78125 216.121094 133.480469 213.285156 136.261719 211.675781 L 245.347656 149.171875 C 248.132812 147.5625 252.945312 147.792969 256.105469 149.679688 L 318.160156 186.832031 C 321.320312 188.722656 321.621094 191.558594 318.839844 193.167969 " fill-opacity="1" fill-rule="nonzero"/></g><path fill="#7761dc" d="M 306.6875 192.367188 L 207.703125 249.082031 C 205.175781 250.542969 200.804688 250.335938 197.941406 248.621094 L 141.628906 214.90625 C 138.761719 213.191406 138.488281 210.617188 141.015625 209.15625 L 240 152.441406 C 242.527344 150.980469 246.894531 151.1875 249.761719 152.902344 L 306.074219 186.617188 C 308.9375 188.332031 309.214844 190.90625 306.6875 192.367188 " fill-opacity="1" fill-rule="nonzero"/><path fill="#7761dc" d="M 139.285156 211.414062 L 139.289062 207.09375 L 308.414062 185.207031 L 308.414062 189.527344 L 139.285156 211.414062 " fill-opacity="1" fill-rule="nonzero"/><path fill="#b4a4f5" d="M 306.6875 187.777344 L 207.703125 244.496094 C 205.175781 245.957031 200.804688 245.746094 197.941406 244.03125 L 141.628906 210.320312 C 138.761719 208.605469 138.488281 206.03125 141.015625 204.570312 L 240 147.855469 C 242.527344 146.394531 246.894531 146.601562 249.761719 148.316406 L 306.074219 182.027344 C 308.9375 183.746094 309.214844 186.320312 306.6875 187.777344 " fill-opacity="1" fill-rule="nonzero"/><path fill="#7761dc" d="M 270.535156 172.625 L 186.726562 220.550781 C 185.007812 221.546875 182.03125 221.40625 180.078125 220.234375 L 155.566406 205.535156 C 153.617188 204.367188 153.429688 202.613281 155.148438 201.617188 L 238.953125 153.691406 C 240.675781 152.695312 243.652344 152.835938 245.605469 154.007812 L 270.113281 168.707031 C 272.066406 169.875 272.253906 171.628906 270.535156 172.625 " fill-opacity="1" fill-rule="nonzero"/><path fill="#3e327a" d="M 271.546875 171.609375 C 271.316406 171.085938 270.835938 170.578125 270.113281 170.144531 L 245.605469 155.445312 C 243.652344 154.277344 240.675781 154.136719 238.953125 155.132812 L 155.148438 203.058594 C 154.65625 203.34375 154.320312 203.691406 154.136719 204.070312 C 153.734375 203.175781 154.0625 202.246094 155.148438 201.617188 L 238.953125 153.691406 C 240.675781 152.695312 243.652344 152.835938 245.605469 154.003906 L 270.113281 168.707031 C 271.507812 169.539062 272 170.671875 271.546875 171.609375 " fill-opacity="1" fill-rule="nonzero"/><path fill="#7761dc" d="M 265.59375 207.503906 L 240.71875 221.671875 C 239.867188 222.160156 238.398438 222.089844 237.4375 221.515625 L 218.515625 210.1875 C 217.554688 209.613281 217.460938 208.746094 218.308594 208.253906 L 243.1875 194.089844 C 244.035156 193.601562 245.503906 193.667969 246.464844 194.246094 L 265.386719 205.574219 C 266.351562 206.152344 266.441406 207.015625 265.59375 207.503906 " fill-opacity="1" fill-rule="nonzero"/><path fill="#3e327a" d="M 265.921875 207.253906 C 265.792969 207.09375 265.613281 206.941406 265.386719 206.808594 L 246.46875 195.480469 C 245.503906 194.902344 244.035156 194.835938 243.1875 195.324219 L 218.308594 209.488281 C 218.179688 209.566406 218.066406 209.652344 217.984375 209.742188 C 217.5625 209.226562 217.65625 208.632812 218.308594 208.257812 L 243.1875 194.089844 C 244.035156 193.601562 245.503906 193.667969 246.46875 194.246094 L 265.386719 205.574219 C 266.199219 206.0625 266.390625 206.753906 265.921875 207.253906 " fill-opacity="1" fill-rule="nonzero"/><path fill="#3e327a" d="M 168.003906 203.820312 L 162.867188 206.742188 C 162.691406 206.84375 162.390625 206.832031 162.191406 206.710938 L 158.285156 204.375 C 158.085938 204.253906 158.066406 204.074219 158.242188 203.972656 L 163.378906 201.050781 C 163.550781 200.949219 163.855469 200.964844 164.054688 201.082031 L 167.960938 203.421875 C 168.160156 203.539062 168.179688 203.71875 168.003906 203.820312 " fill-opacity="1" fill-rule="nonzero"/><path fill="#3e327a" d="M 175.148438 199.839844 L 170.011719 202.765625 C 169.835938 202.867188 169.535156 202.851562 169.335938 202.734375 L 165.429688 200.394531 C 165.230469 200.277344 165.210938 200.097656 165.386719 199.996094 L 170.523438 197.070312 C 170.695312 196.96875 171 196.984375 171.199219 197.105469 L 175.105469 199.441406 C 175.304688 199.5625 175.324219 199.738281 175.148438 199.839844 " fill-opacity="1" fill-rule="nonzero"/><path fill="#3e327a" d="M 182.292969 195.863281 L 177.15625 198.789062 C 176.980469 198.890625 176.679688 198.875 176.480469 198.757812 L 172.574219 196.417969 C 172.375 196.296875 172.355469 196.121094 172.53125 196.019531 L 177.667969 193.09375 C 177.839844 192.992188 178.144531 193.007812 178.34375 193.125 L 182.25 195.464844 C 182.449219 195.582031 182.46875 195.761719 182.292969 195.863281 " fill-opacity="1" fill-rule="nonzero"/><path fill="#3e327a" d="M 188.851562 191.886719 L 183.714844 194.808594 C 183.539062 194.910156 183.238281 194.898438 183.039062 194.777344 L 179.132812 192.4375 C 178.933594 192.320312 178.914062 192.140625 179.089844 192.039062 L 184.226562 189.113281 C 184.402344 189.015625 184.703125 189.027344 184.902344 189.148438 L 188.808594 191.484375 C 189.007812 191.605469 189.027344 191.785156 188.851562 191.886719 " fill-opacity="1" fill-rule="nonzero"/><path fill="#3e327a" d="M 195.996094 187.90625 L 190.859375 190.832031 C 190.683594 190.933594 190.382812 190.917969 190.183594 190.800781 L 186.277344 188.460938 C 186.078125 188.339844 186.058594 188.164062 186.234375 188.0625 L 191.371094 185.136719 C 191.546875 185.035156 191.847656 185.050781 192.046875 185.167969 L 195.953125 187.507812 C 196.152344 187.625 196.171875 187.804688 195.996094 187.90625 " fill-opacity="1" fill-rule="nonzero"/><path fill="#3e327a" d="M 203.140625 183.929688 L 198.003906 186.851562 C 197.828125 186.953125 197.527344 186.941406 197.328125 186.820312 L 193.421875 184.480469 C 193.222656 184.363281 193.203125 184.183594 193.378906 184.082031 L 198.515625 181.160156 C 198.691406 181.058594 198.992188 181.070312 199.191406 181.191406 L 203.097656 183.53125 C 203.296875 183.648438 203.316406 183.828125 203.140625 183.929688 " fill-opacity="1" fill-rule="nonzero"/><path fill="#3e327a" d="M 210.285156 179.949219 L 205.148438 182.875 C 204.972656 182.976562 204.671875 182.960938 204.472656 182.84375 L 200.566406 180.503906 C 200.367188 180.386719 200.347656 180.207031 200.523438 180.105469 L 205.660156 177.179688 C 205.832031 177.078125 206.136719 177.09375 206.335938 177.210938 L 210.242188 179.550781 C 210.441406 179.671875 210.460938 179.847656 210.285156 179.949219 " fill-opacity="1" fill-rule="nonzero"/><path fill="#3e327a" d="M 217.429688 175.972656 L 212.292969 178.898438 C 212.117188 178.996094 211.816406 178.984375 211.617188 178.863281 L 207.710938 176.527344 C 207.511719 176.40625 207.492188 176.226562 207.667969 176.128906 L 212.804688 173.203125 C 212.976562 173.101562 213.28125 173.117188 213.480469 173.234375 L 217.386719 175.574219 C 217.585938 175.691406 217.605469 175.871094 217.429688 175.972656 " fill-opacity="1" fill-rule="nonzero"/><path fill="#3e327a" d="M 224.574219 171.992188 L 219.4375 174.917969 C 219.261719 175.019531 218.960938 175.003906 218.761719 174.886719 L 214.855469 172.546875 C 214.65625 172.429688 214.636719 172.25 214.8125 172.148438 L 219.949219 169.222656 C 220.125 169.121094 220.425781 169.136719 220.625 169.257812 L 224.53125 171.59375 C 224.730469 171.714844 224.75 171.894531 224.574219 171.992188 " fill-opacity="1" fill-rule="nonzero"/><path fill="#3e327a" d="M 231.71875 168.015625 L 226.582031 170.941406 C 226.40625 171.042969 226.105469 171.027344 225.90625 170.910156 L 222 168.570312 C 221.800781 168.449219 221.78125 168.273438 221.957031 168.171875 L 227.09375 165.246094 C 227.269531 165.144531 227.570312 165.160156 227.769531 165.277344 L 231.675781 167.617188 C 231.875 167.734375 231.894531 167.914062 231.71875 168.015625 " fill-opacity="1" fill-rule="nonzero"/><path fill="#3e327a" d="M 238.863281 164.039062 L 233.726562 166.960938 C 233.550781 167.0625 233.25 167.050781 233.050781 166.929688 L 229.144531 164.589844 C 228.945312 164.472656 228.925781 164.292969 229.101562 164.191406 L 234.238281 161.269531 C 234.414062 161.167969 234.714844 161.179688 234.914062 161.300781 L 238.820312 163.636719 C 239.019531 163.757812 239.039062 163.9375 238.863281 164.039062 " fill-opacity="1" fill-rule="nonzero"/><path fill="#3e327a" d="M 246.007812 160.058594 L 240.871094 162.984375 C 240.695312 163.085938 240.394531 163.070312 240.195312 162.953125 L 236.289062 160.613281 C 236.089844 160.496094 236.070312 160.316406 236.246094 160.214844 L 241.382812 157.289062 C 241.558594 157.1875 241.859375 157.203125 242.058594 157.320312 L 245.964844 159.660156 C 246.164062 159.777344 246.183594 159.957031 246.007812 160.058594 " fill-opacity="1" fill-rule="nonzero"/><path fill="#3e327a" d="M 175.148438 207.796875 L 170.011719 210.722656 C 169.835938 210.824219 169.535156 210.808594 169.335938 210.691406 L 165.429688 208.351562 C 165.230469 208.230469 165.210938 208.054688 165.386719 207.953125 L 170.523438 205.027344 C 170.695312 204.925781 171 204.941406 171.199219 205.058594 L 175.105469 207.398438 C 175.304688 207.519531 175.324219 207.695312 175.148438 207.796875 " fill-opacity="1" fill-rule="nonzero"/><path fill="#3e327a" d="M 182.292969 203.820312 L 177.15625 206.742188 C 176.980469 206.84375 176.679688 206.832031 176.480469 206.710938 L 172.574219 204.375 C 172.375 204.253906 172.355469 204.074219 172.53125 203.972656 L 177.667969 201.050781 C 177.839844 200.949219 178.144531 200.964844 178.34375 201.082031 L 182.25 203.421875 C 182.449219 203.539062 182.46875 203.71875 182.292969 203.820312 " fill-opacity="1" fill-rule="nonzero"/><path fill="#3e327a" d="M 189.4375 199.839844 L 184.300781 202.765625 C 184.125 202.867188 183.824219 202.851562 183.625 202.734375 L 179.71875 200.394531 C 179.519531 200.277344 179.5 200.097656 179.675781 199.996094 L 184.8125 197.070312 C 184.984375 196.96875 185.289062 196.984375 185.488281 197.105469 L 189.394531 199.441406 C 189.59375 199.5625 189.613281 199.738281 189.4375 199.839844 " fill-opacity="1" fill-rule="nonzero"/><path fill="#3e327a" d="M 195.996094 195.863281 L 190.859375 198.789062 C 190.683594 198.890625 190.382812 198.875 190.183594 198.757812 L 186.277344 196.417969 C 186.078125 196.296875 186.058594 196.121094 186.234375 196.019531 L 191.371094 193.09375 C 191.546875 192.992188 191.847656 193.007812 192.046875 193.125 L 195.953125 195.464844 C 196.152344 195.582031 196.171875 195.761719 195.996094 195.863281 " fill-opacity="1" fill-rule="nonzero"/><path fill="#3e327a" d="M 203.140625 191.886719 L 198.003906 194.808594 C 197.828125 194.910156 197.527344 194.898438 197.328125 194.777344 L 193.421875 192.4375 C 193.222656 192.320312 193.203125 192.140625 193.378906 192.039062 L 198.515625 189.113281 C 198.691406 189.015625 198.992188 189.027344 199.191406 189.148438 L 203.097656 191.484375 C 203.296875 191.605469 203.316406 191.785156 203.140625 191.886719 " fill-opacity="1" fill-rule="nonzero"/><path fill="#3e327a" d="M 210.285156 187.90625 L 205.148438 190.832031 C 204.972656 190.933594 204.671875 190.917969 204.472656 190.800781 L 200.566406 188.460938 C 200.367188 188.339844 200.347656 188.164062 200.523438 188.0625 L 205.660156 185.136719 C 205.832031 185.035156 206.136719 185.050781 206.335938 185.167969 L 210.242188 187.507812 C 210.441406 187.625 210.460938 187.804688 210.285156 187.90625 " fill-opacity="1" fill-rule="nonzero"/><path fill="#3e327a" d="M 217.429688 183.929688 L 212.292969 186.851562 C 212.117188 186.953125 211.816406 186.941406 211.617188 186.820312 L 207.710938 184.480469 C 207.511719 184.363281 207.492188 184.183594 207.667969 184.082031 L 212.804688 181.160156 C 212.976562 181.058594 213.28125 181.070312 213.480469 181.191406 L 217.386719 183.53125 C 217.585938 183.648438 217.605469 183.828125 217.429688 183.929688 " fill-opacity="1" fill-rule="nonzero"/><path fill="#3e327a" d="M 224.574219 179.949219 L 219.4375 182.875 C 219.261719 182.976562 218.960938 182.960938 218.761719 182.84375 L 214.855469 180.503906 C 214.65625 180.386719 214.636719 180.207031 214.8125 180.105469 L 219.949219 177.179688 C 220.125 177.078125 220.425781 177.09375 220.625 177.210938 L 224.53125 179.550781 C 224.730469 179.671875 224.75 179.847656 224.574219 179.949219 " fill-opacity="1" fill-rule="nonzero"/><path fill="#3e327a" d="M 231.71875 175.972656 L 226.582031 178.898438 C 226.40625 178.996094 226.105469 178.984375 225.90625 178.863281 L 222 176.527344 C 221.800781 176.40625 221.78125 176.226562 221.957031 176.128906 L 227.09375 173.203125 C 227.269531 173.101562 227.570312 173.117188 227.769531 173.234375 L 231.675781 175.574219 C 231.875 175.691406 231.894531 175.871094 231.71875 175.972656 " fill-opacity="1" fill-rule="nonzero"/><path fill="#3e327a" d="M 238.863281 171.992188 L 233.726562 174.917969 C 233.550781 175.019531 233.25 175.003906 233.050781 174.886719 L 229.144531 172.546875 C 228.945312 172.429688 228.925781 172.25 229.101562 172.148438 L 234.238281 169.222656 C 234.414062 169.121094 234.714844 169.136719 234.914062 169.257812 L 238.820312 171.59375 C 239.019531 171.714844 239.039062 171.894531 238.863281 171.992188 " fill-opacity="1" fill-rule="nonzero"/><path fill="#3e327a" d="M 246.007812 168.015625 L 240.871094 170.941406 C 240.695312 171.042969 240.394531 171.027344 240.195312 170.910156 L 236.289062 168.570312 C 236.089844 168.449219 236.070312 168.273438 236.246094 168.171875 L 241.382812 165.246094 C 241.558594 165.144531 241.859375 165.160156 242.058594 165.277344 L 245.964844 167.617188 C 246.164062 167.734375 246.183594 167.914062 246.007812 168.015625 " fill-opacity="1" fill-rule="nonzero"/><path fill="#3e327a" d="M 260.296875 168.015625 L 255.160156 170.941406 C 254.984375 171.042969 254.683594 171.027344 254.484375 170.910156 L 243.433594 164.589844 C 243.234375 164.472656 243.214844 164.292969 243.390625 164.191406 L 248.527344 161.269531 C 248.703125 161.167969 249.003906 161.179688 249.203125 161.300781 L 260.253906 167.617188 C 260.453125 167.734375 260.472656 167.914062 260.296875 168.015625 " fill-opacity="1" fill-rule="nonzero"/><path fill="#3e327a" d="M 182.292969 211.777344 L 177.15625 214.699219 C 176.980469 214.800781 176.679688 214.789062 176.480469 214.667969 L 172.574219 212.328125 C 172.375 212.210938 172.355469 212.03125 172.53125 211.929688 L 177.667969 209.007812 C 177.839844 208.90625 178.144531 208.917969 178.34375 209.039062 L 182.25 211.378906 C 182.449219 211.496094 182.46875 211.675781 182.292969 211.777344 " fill-opacity="1" fill-rule="nonzero"/><path fill="#3e327a" d="M 189.4375 207.796875 L 184.300781 210.722656 C 184.125 210.824219 183.824219 210.808594 183.625 210.691406 L 179.71875 208.351562 C 179.519531 208.230469 179.5 208.054688 179.675781 207.953125 L 184.8125 205.027344 C 184.984375 204.925781 185.289062 204.941406 185.488281 205.058594 L 189.394531 207.398438 C 189.59375 207.519531 189.613281 207.695312 189.4375 207.796875 " fill-opacity="1" fill-rule="nonzero"/><path fill="#3e327a" d="M 196.582031 203.820312 L 191.445312 206.742188 C 191.269531 206.84375 190.96875 206.832031 190.769531 206.710938 L 186.863281 204.375 C 186.664062 204.253906 186.644531 204.074219 186.820312 203.972656 L 191.957031 201.050781 C 192.128906 200.949219 192.433594 200.964844 192.632812 201.082031 L 196.539062 203.421875 C 196.738281 203.539062 196.757812 203.71875 196.582031 203.820312 " fill-opacity="1" fill-rule="nonzero"/><path fill="#3e327a" d="M 203.140625 199.839844 L 198.003906 202.765625 C 197.828125 202.867188 197.527344 202.851562 197.328125 202.734375 L 193.421875 200.394531 C 193.222656 200.277344 193.203125 200.097656 193.378906 199.996094 L 198.515625 197.070312 C 198.691406 196.96875 198.992188 196.984375 199.191406 197.105469 L 203.097656 199.441406 C 203.296875 199.5625 203.316406 199.738281 203.140625 199.839844 " fill-opacity="1" fill-rule="nonzero"/><path fill="#3e327a" d="M 210.285156 195.863281 L 205.148438 198.789062 C 204.972656 198.890625 204.671875 198.875 204.472656 198.757812 L 200.566406 196.417969 C 200.367188 196.296875 200.347656 196.121094 200.523438 196.019531 L 205.660156 193.09375 C 205.832031 192.992188 206.136719 193.007812 206.335938 193.125 L 210.242188 195.464844 C 210.441406 195.582031 210.460938 195.761719 210.285156 195.863281 " fill-opacity="1" fill-rule="nonzero"/><path fill="#3e327a" d="M 217.429688 191.886719 L 212.292969 194.808594 C 212.117188 194.910156 211.816406 194.898438 211.617188 194.777344 L 207.710938 192.4375 C 207.511719 192.320312 207.492188 192.140625 207.667969 192.039062 L 212.804688 189.113281 C 212.976562 189.015625 213.28125 189.027344 213.480469 189.148438 L 217.386719 191.484375 C 217.585938 191.605469 217.605469 191.785156 217.429688 191.886719 " fill-opacity="1" fill-rule="nonzero"/><path fill="#3e327a" d="M 224.574219 187.90625 L 219.4375 190.832031 C 219.261719 190.933594 218.960938 190.917969 218.761719 190.800781 L 214.855469 188.460938 C 214.65625 188.339844 214.636719 188.164062 214.8125 188.0625 L 219.949219 185.136719 C 220.125 185.035156 220.425781 185.050781 220.625 185.167969 L 224.53125 187.507812 C 224.730469 187.625 224.75 187.804688 224.574219 187.90625 " fill-opacity="1" fill-rule="nonzero"/><path fill="#3e327a" d="M 231.71875 183.929688 L 226.582031 186.851562 C 226.40625 186.953125 226.105469 186.941406 225.90625 186.820312 L 222 184.480469 C 221.800781 184.363281 221.78125 184.183594 221.957031 184.082031 L 227.09375 181.160156 C 227.269531 181.058594 227.570312 181.070312 227.769531 181.191406 L 231.675781 183.53125 C 231.875 183.648438 231.894531 183.828125 231.71875 183.929688 " fill-opacity="1" fill-rule="nonzero"/><path fill="#3e327a" d="M 238.863281 179.949219 L 233.726562 182.875 C 233.550781 182.976562 233.25 182.960938 233.050781 182.84375 L 229.144531 180.503906 C 228.945312 180.386719 228.925781 180.207031 229.101562 180.105469 L 234.238281 177.179688 C 234.414062 177.078125 234.714844 177.09375 234.914062 177.210938 L 238.820312 179.550781 C 239.019531 179.671875 239.039062 179.847656 238.863281 179.949219 " fill-opacity="1" fill-rule="nonzero"/><path fill="#3e327a" d="M 246.007812 175.972656 L 240.871094 178.898438 C 240.695312 178.996094 240.394531 178.984375 240.195312 178.863281 L 236.289062 176.527344 C 236.089844 176.40625 236.070312 176.226562 236.246094 176.128906 L 241.382812 173.203125 C 241.558594 173.101562 241.859375 173.117188 242.058594 173.234375 L 245.964844 175.574219 C 246.164062 175.691406 246.183594 175.871094 246.007812 175.972656 " fill-opacity="1" fill-rule="nonzero"/><path fill="#3e327a" d="M 260.296875 168.015625 L 248.5 174.839844 C 248.324219 174.941406 248.023438 174.929688 247.824219 174.808594 L 243.917969 172.46875 C 243.71875 172.351562 243.699219 172.171875 243.875 172.070312 L 255.671875 165.246094 C 255.847656 165.144531 256.148438 165.160156 256.347656 165.277344 L 260.253906 167.617188 C 260.453125 167.734375 260.472656 167.914062 260.296875 168.015625 " fill-opacity="1" fill-rule="nonzero"/><path fill="#3e327a" d="M 189.4375 215.753906 L 184.300781 218.679688 C 184.125 218.78125 183.824219 218.765625 183.625 218.644531 L 179.71875 216.308594 C 179.519531 216.1875 179.5 216.011719 179.675781 215.910156 L 184.8125 212.984375 C 184.984375 212.882812 185.289062 212.898438 185.488281 213.015625 L 189.394531 215.355469 C 189.59375 215.472656 189.613281 215.652344 189.4375 215.753906 " fill-opacity="1" fill-rule="nonzero"/><path fill="#3e327a" d="M 196.582031 211.777344 L 191.445312 214.699219 C 191.269531 214.800781 190.96875 214.789062 190.769531 214.667969 L 186.863281 212.328125 C 186.664062 212.210938 186.644531 212.03125 186.820312 211.929688 L 191.957031 209.007812 C 192.128906 208.90625 192.433594 208.917969 192.632812 209.039062 L 196.539062 211.378906 C 196.738281 211.496094 196.757812 211.675781 196.582031 211.777344 " fill-opacity="1" fill-rule="nonzero"/><path fill="#3e327a" d="M 203.726562 207.796875 L 198.589844 210.722656 C 198.414062 210.824219 198.113281 210.808594 197.914062 210.691406 L 194.007812 208.351562 C 193.808594 208.230469 193.789062 208.054688 193.964844 207.953125 L 199.101562 205.027344 C 199.273438 204.925781 199.578125 204.941406 199.777344 205.058594 L 203.683594 207.398438 C 203.882812 207.519531 203.902344 207.695312 203.726562 207.796875 " fill-opacity="1" fill-rule="nonzero"/><path fill="#3e327a" d="M 210.285156 203.820312 L 205.148438 206.742188 C 204.972656 206.84375 204.671875 206.832031 204.472656 206.710938 L 200.566406 204.375 C 200.367188 204.253906 200.347656 204.074219 200.523438 203.972656 L 205.660156 201.050781 C 205.832031 200.949219 206.136719 200.964844 206.335938 201.082031 L 210.242188 203.421875 C 210.441406 203.539062 210.460938 203.71875 210.285156 203.820312 " fill-opacity="1" fill-rule="nonzero"/><path fill="#3e327a" d="M 238.863281 187.90625 L 213.132812 202.144531 C 212.957031 202.246094 212.65625 202.230469 212.457031 202.113281 L 208.550781 199.773438 C 208.351562 199.652344 208.332031 199.476562 208.507812 199.375 L 234.238281 185.136719 C 234.414062 185.035156 234.714844 185.050781 234.914062 185.167969 L 238.820312 187.507812 C 239.019531 187.625 239.039062 187.804688 238.863281 187.90625 " fill-opacity="1" fill-rule="nonzero"/><path fill="#3e327a" d="M 246.007812 183.929688 L 240.871094 186.851562 C 240.695312 186.953125 240.394531 186.941406 240.195312 186.820312 L 236.289062 184.480469 C 236.089844 184.363281 236.070312 184.183594 236.246094 184.082031 L 241.382812 181.160156 C 241.558594 181.058594 241.859375 181.070312 242.058594 181.191406 L 245.964844 183.53125 C 246.164062 183.648438 246.183594 183.828125 246.007812 183.929688 " fill-opacity="1" fill-rule="nonzero"/><path fill="#3e327a" d="M 253.152344 179.949219 L 248.015625 182.875 C 247.839844 182.976562 247.539062 182.960938 247.339844 182.84375 L 243.433594 180.503906 C 243.234375 180.386719 243.214844 180.207031 243.390625 180.105469 L 248.527344 177.179688 C 248.703125 177.078125 249.003906 177.09375 249.203125 177.210938 L 253.109375 179.550781 C 253.308594 179.671875 253.328125 179.847656 253.152344 179.949219 " fill-opacity="1" fill-rule="nonzero"/><path fill="#3e327a" d="M 260.296875 175.972656 L 255.160156 178.898438 C 254.984375 178.996094 254.683594 178.984375 254.484375 178.863281 L 250.578125 176.527344 C 250.378906 176.40625 250.359375 176.226562 250.535156 176.128906 L 255.671875 173.203125 C 255.847656 173.101562 256.148438 173.117188 256.347656 173.234375 L 260.253906 175.574219 C 260.453125 175.691406 260.472656 175.871094 260.296875 175.972656 " fill-opacity="1" fill-rule="nonzero"/><path fill="#3e327a" d="M 267.441406 171.992188 L 262.304688 174.917969 C 262.128906 175.019531 261.828125 175.003906 261.628906 174.886719 L 257.722656 172.546875 C 257.523438 172.429688 257.503906 172.25 257.679688 172.148438 L 262.816406 169.222656 C 262.992188 169.121094 263.292969 169.136719 263.492188 169.257812 L 267.398438 171.59375 C 267.597656 171.714844 267.617188 171.894531 267.441406 171.992188 " fill-opacity="1" fill-rule="nonzero"/><path fill="#b4a4f5" d="M 168.003906 202.757812 L 162.867188 205.679688 C 162.691406 205.78125 162.390625 205.765625 162.191406 205.648438 L 158.285156 203.308594 C 158.085938 203.191406 158.066406 203.011719 158.242188 202.910156 L 163.378906 199.984375 C 163.550781 199.886719 163.855469 199.898438 164.054688 200.019531 L 167.960938 202.355469 C 168.160156 202.476562 168.179688 202.65625 168.003906 202.757812 " fill-opacity="1" fill-rule="nonzero"/><path fill="#b4a4f5" d="M 175.148438 198.777344 L 170.011719 201.703125 C 169.835938 201.804688 169.535156 201.789062 169.335938 201.671875 L 165.429688 199.332031 C 165.230469 199.210938 165.210938 199.035156 165.386719 198.933594 L 170.523438 196.007812 C 170.695312 195.90625 171 195.921875 171.199219 196.039062 L 175.105469 198.378906 C 175.304688 198.496094 175.324219 198.675781 175.148438 198.777344 " fill-opacity="1" fill-rule="nonzero"/><path fill="#b4a4f5" d="M 182.292969 194.800781 L 177.15625 197.722656 C 176.980469 197.824219 176.679688 197.8125 176.480469 197.691406 L 172.574219 195.351562 C 172.375 195.234375 172.355469 195.054688 172.53125 194.953125 L 177.667969 192.03125 C 177.839844 191.929688 178.144531 191.941406 178.34375 192.0625 L 182.25 194.402344 C 182.449219 194.519531 182.46875 194.699219 182.292969 194.800781 " fill-opacity="1" fill-rule="nonzero"/><path fill="#b4a4f5" d="M 188.851562 190.820312 L 183.714844 193.746094 C 183.539062 193.847656 183.238281 193.832031 183.039062 193.714844 L 179.132812 191.375 C 178.933594 191.257812 178.914062 191.078125 179.089844 190.976562 L 184.226562 188.050781 C 184.402344 187.949219 184.703125 187.964844 184.902344 188.082031 L 188.808594 190.421875 C 189.007812 190.542969 189.027344 190.71875 188.851562 190.820312 " fill-opacity="1" fill-rule="nonzero"/><path fill="#b4a4f5" d="M 195.996094 186.84375 L 190.859375 189.769531 C 190.683594 189.867188 190.382812 189.855469 190.183594 189.734375 L 186.277344 187.398438 C 186.078125 187.277344 186.058594 187.097656 186.234375 186.996094 L 191.371094 184.074219 C 191.546875 183.972656 191.847656 183.988281 192.046875 184.105469 L 195.953125 186.445312 C 196.152344 186.5625 196.171875 186.742188 195.996094 186.84375 " fill-opacity="1" fill-rule="nonzero"/><path fill="#b4a4f5" d="M 203.140625 182.863281 L 198.003906 185.789062 C 197.828125 185.890625 197.527344 185.875 197.328125 185.757812 L 193.421875 183.417969 C 193.222656 183.300781 193.203125 183.121094 193.378906 183.019531 L 198.515625 180.09375 C 198.691406 179.992188 198.992188 180.007812 199.191406 180.128906 L 203.097656 182.464844 C 203.296875 182.585938 203.316406 182.765625 203.140625 182.863281 " fill-opacity="1" fill-rule="nonzero"/><path fill="#b4a4f5" d="M 210.285156 178.886719 L 205.148438 181.8125 C 204.972656 181.914062 204.671875 181.898438 204.472656 181.78125 L 200.566406 179.441406 C 200.367188 179.320312 200.347656 179.144531 200.523438 179.042969 L 205.660156 176.117188 C 205.832031 176.015625 206.136719 176.03125 206.335938 176.148438 L 210.242188 178.488281 C 210.441406 178.605469 210.460938 178.785156 210.285156 178.886719 " fill-opacity="1" fill-rule="nonzero"/><path fill="#b4a4f5" d="M 217.429688 174.910156 L 212.292969 177.832031 C 212.117188 177.933594 211.816406 177.921875 211.617188 177.800781 L 207.710938 175.460938 C 207.511719 175.34375 207.492188 175.164062 207.667969 175.0625 L 212.804688 172.140625 C 212.976562 172.039062 213.28125 172.050781 213.480469 172.171875 L 217.386719 174.507812 C 217.585938 174.628906 217.605469 174.808594 217.429688 174.910156 " fill-opacity="1" fill-rule="nonzero"/><path fill="#b4a4f5" d="M 224.574219 170.929688 L 219.4375 173.855469 C 219.261719 173.957031 218.960938 173.941406 218.761719 173.824219 L 214.855469 171.484375 C 214.65625 171.363281 214.636719 171.1875 214.8125 171.085938 L 219.949219 168.160156 C 220.125 168.058594 220.425781 168.074219 220.625 168.191406 L 224.53125 170.53125 C 224.730469 170.652344 224.75 170.828125 224.574219 170.929688 " fill-opacity="1" fill-rule="nonzero"/><path fill="#b4a4f5" d="M 231.71875 166.953125 L 226.582031 169.875 C 226.40625 169.976562 226.105469 169.964844 225.90625 169.84375 L 222 167.503906 C 221.800781 167.386719 221.78125 167.207031 221.957031 167.105469 L 227.09375 164.183594 C 227.269531 164.082031 227.570312 164.09375 227.769531 164.214844 L 231.675781 166.554688 C 231.875 166.671875 231.894531 166.851562 231.71875 166.953125 " fill-opacity="1" fill-rule="nonzero"/><path fill="#b4a4f5" d="M 238.863281 162.972656 L 233.726562 165.898438 C 233.550781 166 233.25 165.984375 233.050781 165.867188 L 229.144531 163.527344 C 228.945312 163.410156 228.925781 163.230469 229.101562 163.128906 L 234.238281 160.203125 C 234.414062 160.101562 234.714844 160.117188 234.914062 160.238281 L 238.820312 162.574219 C 239.019531 162.695312 239.039062 162.871094 238.863281 162.972656 " fill-opacity="1" fill-rule="nonzero"/><path fill="#b4a4f5" d="M 246.007812 158.996094 L 240.871094 161.921875 C 240.695312 162.023438 240.394531 162.007812 240.195312 161.886719 L 236.289062 159.550781 C 236.089844 159.429688 236.070312 159.253906 236.246094 159.152344 L 241.382812 156.226562 C 241.558594 156.125 241.859375 156.140625 242.058594 156.257812 L 245.964844 158.597656 C 246.164062 158.714844 246.183594 158.894531 246.007812 158.996094 " fill-opacity="1" fill-rule="nonzero"/><path fill="#b4a4f5" d="M 175.148438 206.734375 L 170.011719 209.660156 C 169.835938 209.761719 169.535156 209.746094 169.335938 209.625 L 165.429688 207.289062 C 165.230469 207.167969 165.210938 206.992188 165.386719 206.890625 L 170.523438 203.964844 C 170.695312 203.863281 171 203.878906 171.199219 203.996094 L 175.105469 206.335938 C 175.304688 206.453125 175.324219 206.632812 175.148438 206.734375 " fill-opacity="1" fill-rule="nonzero"/><path fill="#b4a4f5" d="M 182.292969 202.757812 L 177.15625 205.679688 C 176.980469 205.78125 176.679688 205.765625 176.480469 205.648438 L 172.574219 203.308594 C 172.375 203.191406 172.355469 203.011719 172.53125 202.910156 L 177.667969 199.984375 C 177.839844 199.886719 178.144531 199.898438 178.34375 200.019531 L 182.25 202.355469 C 182.449219 202.476562 182.46875 202.65625 182.292969 202.757812 " fill-opacity="1" fill-rule="nonzero"/><path fill="#b4a4f5" d="M 189.4375 198.777344 L 184.300781 201.703125 C 184.125 201.804688 183.824219 201.789062 183.625 201.671875 L 179.71875 199.332031 C 179.519531 199.210938 179.5 199.035156 179.675781 198.933594 L 184.8125 196.007812 C 184.984375 195.90625 185.289062 195.921875 185.488281 196.039062 L 189.394531 198.378906 C 189.59375 198.496094 189.613281 198.675781 189.4375 198.777344 " fill-opacity="1" fill-rule="nonzero"/><path fill="#b4a4f5" d="M 195.996094 194.800781 L 190.859375 197.722656 C 190.683594 197.824219 190.382812 197.8125 190.183594 197.691406 L 186.277344 195.351562 C 186.078125 195.234375 186.058594 195.054688 186.234375 194.953125 L 191.371094 192.03125 C 191.546875 191.929688 191.847656 191.941406 192.046875 192.0625 L 195.953125 194.402344 C 196.152344 194.519531 196.171875 194.699219 195.996094 194.800781 " fill-opacity="1" fill-rule="nonzero"/><path fill="#b4a4f5" d="M 203.140625 190.820312 L 198.003906 193.746094 C 197.828125 193.847656 197.527344 193.832031 197.328125 193.714844 L 193.421875 191.375 C 193.222656 191.257812 193.203125 191.078125 193.378906 190.976562 L 198.515625 188.050781 C 198.691406 187.949219 198.992188 187.964844 199.191406 188.082031 L 203.097656 190.421875 C 203.296875 190.542969 203.316406 190.71875 203.140625 190.820312 " fill-opacity="1" fill-rule="nonzero"/><path fill="#b4a4f5" d="M 210.285156 186.84375 L 205.148438 189.769531 C 204.972656 189.867188 204.671875 189.855469 204.472656 189.734375 L 200.566406 187.398438 C 200.367188 187.277344 200.347656 187.097656 200.523438 186.996094 L 205.660156 184.074219 C 205.832031 183.972656 206.136719 183.988281 206.335938 184.105469 L 210.242188 186.445312 C 210.441406 186.5625 210.460938 186.742188 210.285156 186.84375 " fill-opacity="1" fill-rule="nonzero"/><path fill="#b4a4f5" d="M 217.429688 182.863281 L 212.292969 185.789062 C 212.117188 185.890625 211.816406 185.875 211.617188 185.757812 L 207.710938 183.417969 C 207.511719 183.300781 207.492188 183.121094 207.667969 183.019531 L 212.804688 180.09375 C 212.976562 179.992188 213.28125 180.007812 213.480469 180.128906 L 217.386719 182.464844 C 217.585938 182.585938 217.605469 182.765625 217.429688 182.863281 " fill-opacity="1" fill-rule="nonzero"/><path fill="#b4a4f5" d="M 224.574219 178.886719 L 219.4375 181.8125 C 219.261719 181.914062 218.960938 181.898438 218.761719 181.78125 L 214.855469 179.441406 C 214.65625 179.320312 214.636719 179.144531 214.8125 179.042969 L 219.949219 176.117188 C 220.125 176.015625 220.425781 176.03125 220.625 176.148438 L 224.53125 178.488281 C 224.730469 178.605469 224.75 178.785156 224.574219 178.886719 " fill-opacity="1" fill-rule="nonzero"/><path fill="#b4a4f5" d="M 231.71875 174.910156 L 226.582031 177.832031 C 226.40625 177.933594 226.105469 177.921875 225.90625 177.800781 L 222 175.460938 C 221.800781 175.34375 221.78125 175.164062 221.957031 175.0625 L 227.09375 172.140625 C 227.269531 172.039062 227.570312 172.050781 227.769531 172.171875 L 231.675781 174.507812 C 231.875 174.628906 231.894531 174.808594 231.71875 174.910156 " fill-opacity="1" fill-rule="nonzero"/><path fill="#b4a4f5" d="M 238.863281 170.929688 L 233.726562 173.855469 C 233.550781 173.957031 233.25 173.941406 233.050781 173.824219 L 229.144531 171.484375 C 228.945312 171.363281 228.925781 171.1875 229.101562 171.085938 L 234.238281 168.160156 C 234.414062 168.058594 234.714844 168.074219 234.914062 168.191406 L 238.820312 170.53125 C 239.019531 170.652344 239.039062 170.828125 238.863281 170.929688 " fill-opacity="1" fill-rule="nonzero"/><path fill="#b4a4f5" d="M 246.007812 166.953125 L 240.871094 169.875 C 240.695312 169.976562 240.394531 169.964844 240.195312 169.84375 L 236.289062 167.503906 C 236.089844 167.386719 236.070312 167.207031 236.246094 167.105469 L 241.382812 164.183594 C 241.558594 164.082031 241.859375 164.09375 242.058594 164.214844 L 245.964844 166.554688 C 246.164062 166.671875 246.183594 166.851562 246.007812 166.953125 " fill-opacity="1" fill-rule="nonzero"/><path fill="#b4a4f5" d="M 260.296875 166.953125 L 255.160156 169.875 C 254.984375 169.976562 254.683594 169.964844 254.484375 169.84375 L 243.433594 163.527344 C 243.234375 163.410156 243.214844 163.230469 243.390625 163.128906 L 248.527344 160.203125 C 248.703125 160.101562 249.003906 160.117188 249.203125 160.238281 L 260.253906 166.554688 C 260.453125 166.671875 260.472656 166.851562 260.296875 166.953125 " fill-opacity="1" fill-rule="nonzero"/><path fill="#b4a4f5" d="M 182.292969 210.710938 L 177.15625 213.636719 C 176.980469 213.738281 176.679688 213.722656 176.480469 213.605469 L 172.574219 211.265625 C 172.375 211.148438 172.355469 210.96875 172.53125 210.867188 L 177.667969 207.941406 C 177.839844 207.839844 178.144531 207.855469 178.34375 207.972656 L 182.25 210.3125 C 182.449219 210.433594 182.46875 210.609375 182.292969 210.710938 " fill-opacity="1" fill-rule="nonzero"/><path fill="#b4a4f5" d="M 189.4375 206.734375 L 184.300781 209.660156 C 184.125 209.761719 183.824219 209.746094 183.625 209.625 L 179.71875 207.289062 C 179.519531 207.167969 179.5 206.992188 179.675781 206.890625 L 184.8125 203.964844 C 184.984375 203.863281 185.289062 203.878906 185.488281 203.996094 L 189.394531 206.335938 C 189.59375 206.453125 189.613281 206.632812 189.4375 206.734375 " fill-opacity="1" fill-rule="nonzero"/><path fill="#b4a4f5" d="M 196.582031 202.757812 L 191.445312 205.679688 C 191.269531 205.78125 190.96875 205.765625 190.769531 205.648438 L 186.863281 203.308594 C 186.664062 203.191406 186.644531 203.011719 186.820312 202.910156 L 191.957031 199.984375 C 192.128906 199.886719 192.433594 199.898438 192.632812 200.019531 L 196.539062 202.355469 C 196.738281 202.476562 196.757812 202.65625 196.582031 202.757812 " fill-opacity="1" fill-rule="nonzero"/><path fill="#b4a4f5" d="M 203.140625 198.777344 L 198.003906 201.703125 C 197.828125 201.804688 197.527344 201.789062 197.328125 201.671875 L 193.421875 199.332031 C 193.222656 199.210938 193.203125 199.035156 193.378906 198.933594 L 198.515625 196.007812 C 198.691406 195.90625 198.992188 195.921875 199.191406 196.039062 L 203.097656 198.378906 C 203.296875 198.496094 203.316406 198.675781 203.140625 198.777344 " fill-opacity="1" fill-rule="nonzero"/><path fill="#b4a4f5" d="M 210.285156 194.800781 L 205.148438 197.722656 C 204.972656 197.824219 204.671875 197.8125 204.472656 197.691406 L 200.566406 195.351562 C 200.367188 195.234375 200.347656 195.054688 200.523438 194.953125 L 205.660156 192.03125 C 205.832031 191.929688 206.136719 191.941406 206.335938 192.0625 L 210.242188 194.402344 C 210.441406 194.519531 210.460938 194.699219 210.285156 194.800781 " fill-opacity="1" fill-rule="nonzero"/><path fill="#b4a4f5" d="M 217.429688 190.820312 L 212.292969 193.746094 C 212.117188 193.847656 211.816406 193.832031 211.617188 193.714844 L 207.710938 191.375 C 207.511719 191.257812 207.492188 191.078125 207.667969 190.976562 L 212.804688 188.050781 C 212.976562 187.949219 213.28125 187.964844 213.480469 188.082031 L 217.386719 190.421875 C 217.585938 190.542969 217.605469 190.71875 217.429688 190.820312 " fill-opacity="1" fill-rule="nonzero"/><path fill="#b4a4f5" d="M 224.574219 186.84375 L 219.4375 189.769531 C 219.261719 189.867188 218.960938 189.855469 218.761719 189.734375 L 214.855469 187.398438 C 214.65625 187.277344 214.636719 187.097656 214.8125 186.996094 L 219.949219 184.074219 C 220.125 183.972656 220.425781 183.988281 220.625 184.105469 L 224.53125 186.445312 C 224.730469 186.5625 224.75 186.742188 224.574219 186.84375 " fill-opacity="1" fill-rule="nonzero"/><path fill="#b4a4f5" d="M 231.71875 182.863281 L 226.582031 185.789062 C 226.40625 185.890625 226.105469 185.875 225.90625 185.757812 L 222 183.417969 C 221.800781 183.300781 221.78125 183.121094 221.957031 183.019531 L 227.09375 180.09375 C 227.269531 179.992188 227.570312 180.007812 227.769531 180.128906 L 231.675781 182.464844 C 231.875 182.585938 231.894531 182.765625 231.71875 182.863281 " fill-opacity="1" fill-rule="nonzero"/><path fill="#b4a4f5" d="M 238.863281 178.886719 L 233.726562 181.8125 C 233.550781 181.914062 233.25 181.898438 233.050781 181.78125 L 229.144531 179.441406 C 228.945312 179.320312 228.925781 179.144531 229.101562 179.042969 L 234.238281 176.117188 C 234.414062 176.015625 234.714844 176.03125 234.914062 176.148438 L 238.820312 178.488281 C 239.019531 178.605469 239.039062 178.785156 238.863281 178.886719 " fill-opacity="1" fill-rule="nonzero"/><path fill="#b4a4f5" d="M 246.007812 174.910156 L 240.871094 177.832031 C 240.695312 177.933594 240.394531 177.921875 240.195312 177.800781 L 236.289062 175.460938 C 236.089844 175.34375 236.070312 175.164062 236.246094 175.0625 L 241.382812 172.140625 C 241.558594 172.039062 241.859375 172.050781 242.058594 172.171875 L 245.964844 174.507812 C 246.164062 174.628906 246.183594 174.808594 246.007812 174.910156 " fill-opacity="1" fill-rule="nonzero"/><path fill="#b4a4f5" d="M 260.296875 166.953125 L 248.5 173.777344 C 248.324219 173.878906 248.023438 173.863281 247.824219 173.746094 L 243.917969 171.40625 C 243.71875 171.289062 243.699219 171.109375 243.875 171.007812 L 255.671875 164.183594 C 255.847656 164.082031 256.148438 164.09375 256.347656 164.214844 L 260.253906 166.554688 C 260.453125 166.671875 260.472656 166.851562 260.296875 166.953125 " fill-opacity="1" fill-rule="nonzero"/><path fill="#b4a4f5" d="M 189.4375 214.691406 L 184.300781 217.617188 C 184.125 217.714844 183.824219 217.703125 183.625 217.582031 L 179.71875 215.246094 C 179.519531 215.125 179.5 214.945312 179.675781 214.84375 L 184.8125 211.921875 C 184.984375 211.820312 185.289062 211.832031 185.488281 211.953125 L 189.394531 214.292969 C 189.59375 214.410156 189.613281 214.589844 189.4375 214.691406 " fill-opacity="1" fill-rule="nonzero"/><path fill="#b4a4f5" d="M 196.582031 210.710938 L 191.445312 213.636719 C 191.269531 213.738281 190.96875 213.722656 190.769531 213.605469 L 186.863281 211.265625 C 186.664062 211.148438 186.644531 210.96875 186.820312 210.867188 L 191.957031 207.941406 C 192.128906 207.839844 192.433594 207.855469 192.632812 207.972656 L 196.539062 210.3125 C 196.738281 210.433594 196.757812 210.609375 196.582031 210.710938 " fill-opacity="1" fill-rule="nonzero"/><path fill="#b4a4f5" d="M 203.726562 206.734375 L 198.589844 209.660156 C 198.414062 209.761719 198.113281 209.746094 197.914062 209.625 L 194.007812 207.289062 C 193.808594 207.167969 193.789062 206.992188 193.964844 206.890625 L 199.101562 203.964844 C 199.273438 203.863281 199.578125 203.878906 199.777344 203.996094 L 203.683594 206.335938 C 203.882812 206.453125 203.902344 206.632812 203.726562 206.734375 " fill-opacity="1" fill-rule="nonzero"/><path fill="#b4a4f5" d="M 210.285156 202.757812 L 205.148438 205.679688 C 204.972656 205.78125 204.671875 205.765625 204.472656 205.648438 L 200.566406 203.308594 C 200.367188 203.191406 200.347656 203.011719 200.523438 202.910156 L 205.660156 199.984375 C 205.832031 199.886719 206.136719 199.898438 206.335938 200.019531 L 210.242188 202.355469 C 210.441406 202.476562 210.460938 202.65625 210.285156 202.757812 " fill-opacity="1" fill-rule="nonzero"/><path fill="#b4a4f5" d="M 238.863281 186.84375 L 213.132812 201.082031 C 212.957031 201.179688 212.65625 201.167969 212.457031 201.046875 L 208.550781 198.710938 C 208.351562 198.589844 208.332031 198.410156 208.507812 198.3125 L 234.238281 184.074219 C 234.414062 183.972656 234.714844 183.988281 234.914062 184.105469 L 238.820312 186.445312 C 239.019531 186.5625 239.039062 186.742188 238.863281 186.84375 " fill-opacity="1" fill-rule="nonzero"/><path fill="#b4a4f5" d="M 246.007812 182.863281 L 240.871094 185.789062 C 240.695312 185.890625 240.394531 185.875 240.195312 185.757812 L 236.289062 183.417969 C 236.089844 183.300781 236.070312 183.121094 236.246094 183.019531 L 241.382812 180.09375 C 241.558594 179.992188 241.859375 180.007812 242.058594 180.128906 L 245.964844 182.464844 C 246.164062 182.585938 246.183594 182.765625 246.007812 182.863281 " fill-opacity="1" fill-rule="nonzero"/><path fill="#b4a4f5" d="M 253.152344 178.886719 L 248.015625 181.8125 C 247.839844 181.914062 247.539062 181.898438 247.339844 181.78125 L 243.433594 179.441406 C 243.234375 179.320312 243.214844 179.144531 243.390625 179.042969 L 248.527344 176.117188 C 248.703125 176.015625 249.003906 176.03125 249.203125 176.148438 L 253.109375 178.488281 C 253.308594 178.605469 253.328125 178.785156 253.152344 178.886719 " fill-opacity="1" fill-rule="nonzero"/><path fill="#b4a4f5" d="M 260.296875 174.910156 L 255.160156 177.832031 C 254.984375 177.933594 254.683594 177.921875 254.484375 177.800781 L 250.578125 175.460938 C 250.378906 175.34375 250.359375 175.164062 250.535156 175.0625 L 255.671875 172.140625 C 255.847656 172.039062 256.148438 172.050781 256.347656 172.171875 L 260.253906 174.507812 C 260.453125 174.628906 260.472656 174.808594 260.296875 174.910156 " fill-opacity="1" fill-rule="nonzero"/><path fill="#b4a4f5" d="M 267.441406 170.929688 L 262.304688 173.855469 C 262.128906 173.957031 261.828125 173.941406 261.628906 173.824219 L 257.722656 171.484375 C 257.523438 171.363281 257.503906 171.1875 257.679688 171.085938 L 262.816406 168.160156 C 262.992188 168.058594 263.292969 168.074219 263.492188 168.191406 L 267.398438 170.53125 C 267.597656 170.652344 267.617188 170.828125 267.441406 170.929688 " fill-opacity="1" fill-rule="nonzero"/><g clip-path="url(#dced237cb5)"><path fill="#7761dc" d="M 220.394531 60.570312 L 121.941406 117.324219 C 119.75 118.589844 118.300781 121.464844 118.710938 123.75 L 133.285156 203.582031 C 133.695312 205.863281 135.804688 206.691406 138 205.429688 L 236.453125 148.675781 C 238.644531 147.410156 240.09375 144.535156 239.683594 142.25 L 225.109375 62.417969 C 224.699219 60.132812 222.589844 59.308594 220.394531 60.570312 " fill-opacity="1" fill-rule="nonzero"/></g><path fill="#7761dc" d="M 135.453125 205.972656 L 138.910156 206.761719 L 226.597656 60.859375 L 223.097656 60.0625 L 135.453125 205.972656 " fill-opacity="1" fill-rule="nonzero"/><path fill="#b4a4f5" d="M 224 61.394531 L 125.550781 118.148438 C 123.355469 119.410156 121.910156 122.289062 122.320312 124.574219 L 136.894531 204.402344 C 137.300781 206.6875 139.414062 207.515625 141.605469 206.25 L 240.058594 149.5 C 242.253906 148.234375 243.699219 145.355469 243.289062 143.074219 L 228.714844 63.242188 C 228.304688 60.957031 226.195312 60.128906 224 61.394531 " fill-opacity="1" fill-rule="nonzero"/><path fill="#efecff" d="M 238.636719 143.195312 L 142.773438 198.46875 L 129.328125 123.828125 L 225.191406 68.550781 L 238.636719 143.195312 " fill-opacity="1" fill-rule="nonzero"/><path fill="#7761dc" d="M 145.585938 204.421875 L 145.183594 203.722656 L 238.433594 149.96875 L 238.839844 150.667969 L 145.585938 204.421875 " fill-opacity="1" fill-rule="nonzero"/><path fill="#7761dc" d="M 146.261719 175.628906 L 145.574219 175.179688 L 156.714844 158.195312 L 162.132812 139.800781 L 177.929688 152.445312 L 182.664062 130.289062 L 182.664062 110.984375 L 202.691406 127.628906 L 213.613281 105.191406 L 216.953125 80.261719 L 217.769531 80.371094 L 214.414062 105.433594 L 214.382812 105.492188 L 202.972656 128.933594 L 183.488281 112.738281 L 183.488281 130.375 L 183.480469 130.417969 L 178.453125 153.921875 L 162.574219 141.210938 L 157.46875 158.542969 L 157.4375 158.59375 L 146.261719 175.628906 " fill-opacity="1" fill-rule="nonzero"/><path fill="#efecff" d="M 165.15625 140.65625 C 165.15625 142.097656 163.984375 143.269531 162.539062 143.269531 C 161.09375 143.269531 159.921875 142.097656 159.921875 140.65625 C 159.921875 139.210938 161.09375 138.042969 162.539062 138.042969 C 163.984375 138.042969 165.15625 139.210938 165.15625 140.65625 " fill-opacity="1" fill-rule="nonzero"/><path fill="#7761dc" d="M 162.539062 138.453125 C 161.324219 138.453125 160.332031 139.441406 160.332031 140.65625 C 160.332031 141.871094 161.324219 142.859375 162.539062 142.859375 C 163.753906 142.859375 164.746094 141.871094 164.746094 140.65625 C 164.746094 139.441406 163.753906 138.453125 162.539062 138.453125 Z M 162.539062 143.679688 C 160.867188 143.679688 159.507812 142.324219 159.507812 140.65625 C 159.507812 138.988281 160.867188 137.628906 162.539062 137.628906 C 164.210938 137.628906 165.570312 138.988281 165.570312 140.65625 C 165.570312 142.324219 164.210938 143.679688 162.539062 143.679688 " fill-opacity="1" fill-rule="nonzero"/><path fill="#efecff" d="M 180.867188 152.90625 C 180.867188 154.351562 179.695312 155.519531 178.25 155.519531 C 176.804688 155.519531 175.632812 154.351562 175.632812 152.90625 C 175.632812 151.460938 176.804688 150.292969 178.25 150.292969 C 179.695312 150.292969 180.867188 151.460938 180.867188 152.90625 " fill-opacity="1" fill-rule="nonzero"/><path fill="#7761dc" d="M 178.25 150.703125 C 177.03125 150.703125 176.042969 151.691406 176.042969 152.90625 C 176.042969 154.121094 177.03125 155.109375 178.25 155.109375 C 179.464844 155.109375 180.457031 154.121094 180.457031 152.90625 C 180.457031 151.691406 179.464844 150.703125 178.25 150.703125 Z M 178.25 155.929688 C 176.578125 155.929688 175.21875 154.574219 175.21875 152.90625 C 175.21875 151.238281 176.578125 149.882812 178.25 149.882812 C 179.917969 149.882812 181.277344 151.238281 181.277344 152.90625 C 181.277344 154.574219 179.917969 155.929688 178.25 155.929688 " fill-opacity="1" fill-rule="nonzero"/><path fill="#efecff" d="M 185.828125 130.914062 C 185.828125 132.359375 184.65625 133.527344 183.210938 133.527344 C 181.761719 133.527344 180.589844 132.359375 180.589844 130.914062 C 180.589844 129.472656 181.761719 128.300781 183.210938 128.300781 C 184.65625 128.300781 185.828125 129.472656 185.828125 130.914062 " fill-opacity="1" fill-rule="nonzero"/><path fill="#7761dc" d="M 183.210938 128.710938 C 181.992188 128.710938 181.003906 129.699219 181.003906 130.914062 C 181.003906 132.128906 181.992188 133.117188 183.210938 133.117188 C 184.425781 133.117188 185.414062 132.128906 185.414062 130.914062 C 185.414062 129.699219 184.425781 128.710938 183.210938 128.710938 Z M 183.210938 133.941406 C 181.539062 133.941406 180.179688 132.582031 180.179688 130.914062 C 180.179688 129.246094 181.539062 127.890625 183.210938 127.890625 C 184.878906 127.890625 186.238281 129.246094 186.238281 130.914062 C 186.238281 132.582031 184.878906 133.941406 183.210938 133.941406 " fill-opacity="1" fill-rule="nonzero"/><path fill="#efecff" d="M 185.828125 112.351562 C 185.828125 113.796875 184.65625 114.964844 183.210938 114.964844 C 181.761719 114.964844 180.589844 113.796875 180.589844 112.351562 C 180.589844 110.910156 181.761719 109.738281 183.210938 109.738281 C 184.65625 109.738281 185.828125 110.910156 185.828125 112.351562 " fill-opacity="1" fill-rule="nonzero"/><path fill="#7761dc" d="M 183.210938 110.148438 C 181.992188 110.148438 181.003906 111.136719 181.003906 112.351562 C 181.003906 113.566406 181.992188 114.554688 183.210938 114.554688 C 184.425781 114.554688 185.414062 113.566406 185.414062 112.351562 C 185.414062 111.136719 184.425781 110.148438 183.210938 110.148438 Z M 183.210938 115.378906 C 181.539062 115.378906 180.179688 114.019531 180.179688 112.351562 C 180.179688 110.683594 181.539062 109.328125 183.210938 109.328125 C 184.878906 109.328125 186.238281 110.683594 186.238281 112.351562 C 186.238281 114.019531 184.878906 115.378906 183.210938 115.378906 " fill-opacity="1" fill-rule="nonzero"/><path fill="#efecff" d="M 205.105469 128.300781 C 205.105469 129.746094 203.933594 130.914062 202.488281 130.914062 C 201.042969 130.914062 199.871094 129.746094 199.871094 128.300781 C 199.871094 126.859375 201.042969 125.6875 202.488281 125.6875 C 203.933594 125.6875 205.105469 126.859375 205.105469 128.300781 " fill-opacity="1" fill-rule="nonzero"/><path fill="#7761dc" d="M 202.488281 126.097656 C 201.273438 126.097656 200.28125 127.085938 200.28125 128.300781 C 200.28125 129.515625 201.273438 130.503906 202.488281 130.503906 C 203.703125 130.503906 204.695312 129.515625 204.695312 128.300781 C 204.695312 127.085938 203.703125 126.097656 202.488281 126.097656 Z M 202.488281 131.328125 C 200.816406 131.328125 199.457031 129.96875 199.457031 128.300781 C 199.457031 126.632812 200.816406 125.277344 202.488281 125.277344 C 204.160156 125.277344 205.519531 126.632812 205.519531 128.300781 C 205.519531 129.96875 204.160156 131.328125 202.488281 131.328125 " fill-opacity="1" fill-rule="nonzero"/><path fill="#efecff" d="M 216.539062 104.785156 C 216.539062 106.226562 215.363281 107.398438 213.917969 107.398438 C 212.472656 107.398438 211.300781 106.226562 211.300781 104.785156 C 211.300781 103.339844 212.472656 102.167969 213.917969 102.167969 C 215.363281 102.167969 216.539062 103.339844 216.539062 104.785156 " fill-opacity="1" fill-rule="nonzero"/><path fill="#7761dc" d="M 213.917969 102.582031 C 212.703125 102.582031 211.714844 103.570312 211.714844 104.785156 C 211.714844 106 212.703125 106.984375 213.917969 106.984375 C 215.136719 106.984375 216.125 106 216.125 104.785156 C 216.125 103.570312 215.136719 102.582031 213.917969 102.582031 Z M 213.917969 107.808594 C 212.25 107.808594 210.890625 106.453125 210.890625 104.785156 C 210.890625 103.117188 212.25 101.757812 213.917969 101.757812 C 215.589844 101.757812 216.949219 103.117188 216.949219 104.785156 C 216.949219 106.453125 215.589844 107.808594 213.917969 107.808594 " fill-opacity="1" fill-rule="nonzero"/><path fill="#efecff" d="M 219.980469 80.316406 C 219.980469 81.757812 218.808594 82.929688 217.363281 82.929688 C 215.917969 82.929688 214.746094 81.757812 214.746094 80.316406 C 214.746094 78.871094 215.917969 77.703125 217.363281 77.703125 C 218.808594 77.703125 219.980469 78.871094 219.980469 80.316406 " fill-opacity="1" fill-rule="nonzero"/><path fill="#7761dc" d="M 217.363281 78.113281 C 216.144531 78.113281 215.15625 79.101562 215.15625 80.316406 C 215.15625 81.53125 216.144531 82.519531 217.363281 82.519531 C 218.578125 82.519531 219.570312 81.53125 219.570312 80.316406 C 219.570312 79.101562 218.578125 78.113281 217.363281 78.113281 Z M 217.363281 83.339844 C 215.691406 83.339844 214.332031 81.984375 214.332031 80.316406 C 214.332031 78.648438 215.691406 77.289062 217.363281 77.289062 C 219.035156 77.289062 220.390625 78.648438 220.390625 80.316406 C 220.390625 81.984375 219.035156 83.339844 217.363281 83.339844 " fill-opacity="1" fill-rule="nonzero"/><path fill="#efecff" d="M 148.535156 176.050781 C 148.535156 177.496094 147.363281 178.667969 145.917969 178.667969 C 144.472656 178.667969 143.300781 177.496094 143.300781 176.050781 C 143.300781 174.609375 144.472656 173.4375 145.917969 173.4375 C 147.363281 173.4375 148.535156 174.609375 148.535156 176.050781 " fill-opacity="1" fill-rule="nonzero"/><path fill="#7761dc" d="M 145.917969 173.847656 C 144.699219 173.847656 143.710938 174.835938 143.710938 176.050781 C 143.710938 177.265625 144.699219 178.253906 145.917969 178.253906 C 147.132812 178.253906 148.125 177.265625 148.125 176.050781 C 148.125 174.835938 147.132812 173.847656 145.917969 173.847656 Z M 145.917969 179.078125 C 144.246094 179.078125 142.886719 177.71875 142.886719 176.050781 C 142.886719 174.382812 144.246094 173.027344 145.917969 173.027344 C 147.585938 173.027344 148.945312 174.382812 148.945312 176.050781 C 148.945312 177.71875 147.585938 179.078125 145.917969 179.078125 " fill-opacity="1" fill-rule="nonzero"/><path fill="#efecff" d="M 159.921875 157.941406 C 159.921875 159.386719 158.75 160.554688 157.300781 160.554688 C 155.855469 160.554688 154.683594 159.386719 154.683594 157.941406 C 154.683594 156.496094 155.855469 155.328125 157.300781 155.328125 C 158.75 155.328125 159.921875 156.496094 159.921875 157.941406 " fill-opacity="1" fill-rule="nonzero"/><path fill="#7761dc" d="M 157.300781 155.738281 C 156.085938 155.738281 155.097656 156.726562 155.097656 157.941406 C 155.097656 159.15625 156.085938 160.144531 157.300781 160.144531 C 158.519531 160.144531 159.507812 159.15625 159.507812 157.941406 C 159.507812 156.726562 158.519531 155.738281 157.300781 155.738281 Z M 157.300781 160.964844 C 155.632812 160.964844 154.273438 159.609375 154.273438 157.941406 C 154.273438 156.273438 155.632812 154.914062 157.300781 154.914062 C 158.972656 154.914062 160.332031 156.273438 160.332031 157.941406 C 160.332031 159.609375 158.972656 160.964844 157.300781 160.964844 " fill-opacity="1" fill-rule="nonzero"/><path fill="#ff82a1" d="M 149.578125 187.394531 L 148.964844 186.847656 L 163.4375 170.632812 L 163.566406 170.605469 L 181.339844 166.675781 L 189.308594 147.574219 L 200.1875 149.828125 L 209.339844 133.007812 L 222.632812 132.597656 L 227.863281 109.277344 L 228.667969 109.457031 L 223.296875 133.402344 L 209.839844 133.816406 L 200.617188 150.757812 L 189.808594 148.519531 L 181.9375 167.386719 L 163.875 171.378906 L 149.578125 187.394531 " fill-opacity="1" fill-rule="nonzero"/><path fill="#efecff" d="M 151.496094 187.121094 C 151.496094 188.5625 150.324219 189.734375 148.878906 189.734375 C 147.433594 189.734375 146.261719 188.5625 146.261719 187.121094 C 146.261719 185.675781 147.433594 184.507812 148.878906 184.507812 C 150.324219 184.507812 151.496094 185.675781 151.496094 187.121094 " fill-opacity="1" fill-rule="nonzero"/><path fill="#ff82a1" d="M 148.878906 184.917969 C 147.660156 184.917969 146.671875 185.90625 146.671875 187.121094 C 146.671875 188.335938 147.660156 189.324219 148.878906 189.324219 C 150.09375 189.324219 151.085938 188.335938 151.085938 187.121094 C 151.085938 185.90625 150.09375 184.917969 148.878906 184.917969 Z M 148.878906 190.144531 C 147.207031 190.144531 145.847656 188.789062 145.847656 187.121094 C 145.847656 185.453125 147.207031 184.097656 148.878906 184.097656 C 150.550781 184.097656 151.910156 185.453125 151.910156 187.121094 C 151.910156 188.789062 150.550781 190.144531 148.878906 190.144531 " fill-opacity="1" fill-rule="nonzero"/><path fill="#efecff" d="M 166.386719 171.007812 C 166.386719 172.453125 165.214844 173.621094 163.769531 173.621094 C 162.324219 173.621094 161.152344 172.453125 161.152344 171.007812 C 161.152344 169.5625 162.324219 168.394531 163.769531 168.394531 C 165.214844 168.394531 166.386719 169.5625 166.386719 171.007812 " fill-opacity="1" fill-rule="nonzero"/><path fill="#ff82a1" d="M 163.769531 168.804688 C 162.550781 168.804688 161.5625 169.792969 161.5625 171.007812 C 161.5625 172.222656 162.550781 173.210938 163.769531 173.210938 C 164.984375 173.210938 165.976562 172.222656 165.976562 171.007812 C 165.976562 169.792969 164.984375 168.804688 163.769531 168.804688 Z M 163.769531 174.03125 C 162.097656 174.03125 160.738281 172.675781 160.738281 171.007812 C 160.738281 169.339844 162.097656 167.984375 163.769531 167.984375 C 165.441406 167.984375 166.796875 169.339844 166.796875 171.007812 C 166.796875 172.675781 165.441406 174.03125 163.769531 174.03125 " fill-opacity="1" fill-rule="nonzero"/><path fill="#efecff" d="M 184.257812 167.03125 C 184.257812 168.472656 183.085938 169.644531 181.640625 169.644531 C 180.195312 169.644531 179.023438 168.472656 179.023438 167.03125 C 179.023438 165.585938 180.195312 164.414062 181.640625 164.414062 C 183.085938 164.414062 184.257812 165.585938 184.257812 167.03125 " fill-opacity="1" fill-rule="nonzero"/><path fill="#ff82a1" d="M 181.640625 164.828125 C 180.421875 164.828125 179.433594 165.816406 179.433594 167.03125 C 179.433594 168.242188 180.421875 169.230469 181.640625 169.230469 C 182.855469 169.230469 183.847656 168.242188 183.847656 167.03125 C 183.847656 165.816406 182.855469 164.828125 181.640625 164.828125 Z M 181.640625 170.054688 C 179.96875 170.054688 178.609375 168.699219 178.609375 167.03125 C 178.609375 165.363281 179.96875 164.003906 181.640625 164.003906 C 183.308594 164.003906 184.667969 165.363281 184.667969 167.03125 C 184.667969 168.699219 183.308594 170.054688 181.640625 170.054688 " fill-opacity="1" fill-rule="nonzero"/><path fill="#efecff" d="M 192.011719 148.210938 C 192.011719 149.65625 190.839844 150.824219 189.394531 150.824219 C 187.949219 150.824219 186.773438 149.65625 186.773438 148.210938 C 186.773438 146.769531 187.949219 145.597656 189.394531 145.597656 C 190.839844 145.597656 192.011719 146.769531 192.011719 148.210938 " fill-opacity="1" fill-rule="nonzero"/><path fill="#ff82a1" d="M 189.394531 146.011719 C 188.175781 146.011719 187.1875 146.996094 187.1875 148.210938 C 187.1875 149.425781 188.175781 150.414062 189.394531 150.414062 C 190.609375 150.414062 191.597656 149.425781 191.597656 148.210938 C 191.597656 146.996094 190.609375 146.011719 189.394531 146.011719 Z M 189.394531 151.238281 C 187.722656 151.238281 186.363281 149.878906 186.363281 148.210938 C 186.363281 146.542969 187.722656 145.1875 189.394531 145.1875 C 191.0625 145.1875 192.421875 146.542969 192.421875 148.210938 C 192.421875 149.878906 191.0625 151.238281 189.394531 151.238281 " fill-opacity="1" fill-rule="nonzero"/><path fill="#efecff" d="M 202.855469 150.457031 C 202.855469 151.902344 201.683594 153.070312 200.238281 153.070312 C 198.792969 153.070312 197.621094 151.902344 197.621094 150.457031 C 197.621094 149.015625 198.792969 147.84375 200.238281 147.84375 C 201.683594 147.84375 202.855469 149.015625 202.855469 150.457031 " fill-opacity="1" fill-rule="nonzero"/><path fill="#ff82a1" d="M 200.238281 148.253906 C 199.023438 148.253906 198.03125 149.242188 198.03125 150.457031 C 198.03125 151.671875 199.023438 152.660156 200.238281 152.660156 C 201.453125 152.660156 202.445312 151.671875 202.445312 150.457031 C 202.445312 149.242188 201.453125 148.253906 200.238281 148.253906 Z M 200.238281 153.484375 C 198.566406 153.484375 197.207031 152.125 197.207031 150.457031 C 197.207031 148.789062 198.566406 147.433594 200.238281 147.433594 C 201.910156 147.433594 203.269531 148.789062 203.269531 150.457031 C 203.269531 152.125 201.910156 153.484375 200.238281 153.484375 " fill-opacity="1" fill-rule="nonzero"/><path fill="#efecff" d="M 212.195312 133.527344 C 212.195312 134.972656 211.023438 136.144531 209.578125 136.144531 C 208.128906 136.144531 206.960938 134.972656 206.960938 133.527344 C 206.960938 132.085938 208.128906 130.914062 209.578125 130.914062 C 211.023438 130.914062 212.195312 132.085938 212.195312 133.527344 " fill-opacity="1" fill-rule="nonzero"/><path fill="#ff82a1" d="M 209.578125 131.328125 C 208.359375 131.328125 207.371094 132.316406 207.371094 133.527344 C 207.371094 134.742188 208.359375 135.730469 209.578125 135.730469 C 210.792969 135.730469 211.78125 134.742188 211.78125 133.527344 C 211.78125 132.316406 210.792969 131.328125 209.578125 131.328125 Z M 209.578125 136.554688 C 207.90625 136.554688 206.546875 135.195312 206.546875 133.527344 C 206.546875 131.863281 207.90625 130.503906 209.578125 130.503906 C 211.246094 130.503906 212.605469 131.863281 212.605469 133.527344 C 212.605469 135.195312 211.246094 136.554688 209.578125 136.554688 " fill-opacity="1" fill-rule="nonzero"/><path fill="#efecff" d="M 225.570312 132.464844 C 225.570312 133.910156 224.398438 135.078125 222.953125 135.078125 C 221.507812 135.078125 220.335938 133.910156 220.335938 132.464844 C 220.335938 131.023438 221.507812 129.851562 222.953125 129.851562 C 224.398438 129.851562 225.570312 131.023438 225.570312 132.464844 " fill-opacity="1" fill-rule="nonzero"/><path fill="#ff82a1" d="M 222.953125 130.265625 C 221.738281 130.265625 220.746094 131.25 220.746094 132.464844 C 220.746094 133.679688 221.738281 134.667969 222.953125 134.667969 C 224.167969 134.667969 225.160156 133.679688 225.160156 132.464844 C 225.160156 131.25 224.167969 130.265625 222.953125 130.265625 Z M 222.953125 135.492188 C 221.28125 135.492188 219.921875 134.132812 219.921875 132.464844 C 219.921875 130.796875 221.28125 129.441406 222.953125 129.441406 C 224.625 129.441406 225.984375 130.796875 225.984375 132.464844 C 225.984375 134.132812 224.625 135.492188 222.953125 135.492188 " fill-opacity="1" fill-rule="nonzero"/><path fill="#efecff" d="M 230.808594 109.738281 C 230.808594 111.183594 229.636719 112.351562 228.1875 112.351562 C 226.742188 112.351562 225.570312 111.183594 225.570312 109.738281 C 225.570312 108.296875 226.742188 107.125 228.1875 107.125 C 229.636719 107.125 230.808594 108.296875 230.808594 109.738281 " fill-opacity="1" fill-rule="nonzero"/><path fill="#ff82a1" d="M 228.1875 107.535156 C 226.972656 107.535156 225.984375 108.523438 225.984375 109.738281 C 225.984375 110.953125 226.972656 111.941406 228.1875 111.941406 C 229.40625 111.941406 230.394531 110.953125 230.394531 109.738281 C 230.394531 108.523438 229.40625 107.535156 228.1875 107.535156 Z M 228.1875 112.765625 C 226.519531 112.765625 225.160156 111.40625 225.160156 109.738281 C 225.160156 108.070312 226.519531 106.714844 228.1875 106.714844 C 229.859375 106.714844 231.21875 108.070312 231.21875 109.738281 C 231.21875 111.40625 229.859375 112.765625 228.1875 112.765625 " fill-opacity="1" fill-rule="nonzero"/><path fill="#302245" d="M 293.160156 254.910156 C 291.878906 257.699219 286.679688 258.054688 281.550781 255.707031 C 276.417969 253.355469 273.300781 249.1875 274.582031 246.398438 C 275.863281 243.609375 281.0625 243.25 286.191406 245.601562 C 291.324219 247.949219 294.441406 252.117188 293.160156 254.910156 " fill-opacity="1" fill-rule="nonzero"/><path fill="#302245" d="M 307.96875 246.699219 C 306.6875 249.488281 301.488281 249.847656 296.355469 247.496094 C 291.226562 245.144531 288.105469 240.980469 289.390625 238.1875 C 290.671875 235.398438 295.871094 235.042969 301 237.390625 C 306.128906 239.742188 309.25 243.910156 307.96875 246.699219 " fill-opacity="1" fill-rule="nonzero"/><path fill="#ebb353" d="M 292.5625 144.269531 C 289.214844 142.582031 287.871094 138.511719 289.558594 135.167969 L 294.882812 124.617188 C 296.566406 121.277344 300.648438 119.933594 303.996094 121.617188 C 307.34375 123.300781 308.6875 127.375 307.003906 130.714844 L 301.679688 141.265625 C 299.992188 144.609375 295.910156 145.953125 292.5625 144.269531 " fill-opacity="1" fill-rule="nonzero"/><path fill="#3e327a" d="M 303.648438 247.273438 C 301.136719 247.273438 299.101562 245.238281 299.101562 242.730469 L 299.101562 170.605469 C 299.101562 168.097656 301.136719 166.0625 303.648438 166.0625 C 306.160156 166.0625 308.195312 168.097656 308.195312 170.605469 L 308.195312 242.730469 C 308.195312 245.238281 306.160156 247.273438 303.648438 247.273438 " fill-opacity="1" fill-rule="nonzero"/><path fill="#3e327a" d="M 310.269531 165.984375 C 310.269531 164.09375 310.269531 162.207031 310.265625 160.316406 C 310.265625 160.179688 310.257812 159.996094 310.25 159.859375 C 310.246094 159.789062 310.234375 159.691406 310.222656 159.621094 C 310.171875 159.308594 310.109375 159.125 310.054688 158.964844 C 309.964844 158.710938 309.761719 158.320312 309.480469 158.039062 C 309.277344 157.839844 309.171875 157.753906 308.832031 157.503906 C 308.605469 157.335938 308.234375 157.097656 307.964844 156.925781 C 306.890625 156.242188 305.558594 155.511719 305.121094 155.273438 L 304.058594 154.695312 C 303.820312 154.566406 303.492188 154.390625 303.113281 154.191406 C 302.769531 154.015625 302.390625 153.820312 302.03125 153.640625 C 302.027344 153.640625 302.027344 153.640625 302.023438 153.640625 C 301.738281 153.496094 301.441406 153.355469 301.152344 153.222656 C 301.128906 153.210938 301.113281 153.203125 301.089844 153.195312 C 301.070312 153.183594 301.050781 153.175781 301.027344 153.164062 C 300.96875 153.136719 300.914062 153.113281 300.863281 153.089844 C 300.855469 153.085938 300.84375 153.082031 300.835938 153.078125 C 300.445312 152.902344 300.21875 152.8125 300.167969 152.792969 C 300.15625 152.789062 300.136719 152.78125 300.117188 152.773438 C 299.957031 152.710938 299.8125 152.660156 299.679688 152.617188 C 299.574219 152.582031 299.46875 152.554688 299.390625 152.539062 C 299.378906 152.539062 299.367188 152.535156 299.359375 152.535156 C 299.25 152.511719 299.144531 152.496094 299.042969 152.488281 C 299.03125 152.488281 299.015625 152.488281 299.003906 152.484375 C 298.949219 152.480469 298.875 152.480469 298.820312 152.484375 C 298.789062 152.484375 298.726562 152.488281 298.644531 152.5 C 298.644531 152.5 298.640625 152.5 298.640625 152.5 C 298.632812 152.5 298.621094 152.503906 298.613281 152.503906 C 298.609375 152.503906 298.605469 152.503906 298.601562 152.503906 C 298.527344 152.515625 298.4375 152.535156 298.328125 152.5625 C 298.328125 152.5625 298.324219 152.5625 298.324219 152.566406 C 298.226562 152.589844 298.117188 152.625 298 152.671875 C 297.988281 152.675781 297.980469 152.679688 297.96875 152.683594 C 297.914062 152.707031 297.855469 152.730469 297.796875 152.757812 C 297.789062 152.761719 297.78125 152.765625 297.769531 152.769531 C 297.746094 152.78125 297.726562 152.792969 297.707031 152.800781 C 297.695312 152.804688 297.6875 152.808594 297.679688 152.816406 C 297.640625 152.835938 297.601562 152.855469 297.5625 152.875 C 297.5625 152.875 297.558594 152.878906 297.554688 152.878906 C 297.535156 152.890625 297.515625 152.898438 297.492188 152.910156 C 297.464844 152.925781 297.425781 152.945312 297.398438 152.964844 C 297.394531 152.96875 297.386719 152.972656 297.378906 152.976562 C 297.332031 153.007812 297.277344 153.039062 297.226562 153.074219 C 297.222656 153.078125 297.214844 153.082031 297.207031 153.082031 C 297.207031 153.082031 297.15625 153.113281 296.992188 153.230469 C 296.972656 153.242188 296.957031 153.257812 296.941406 153.269531 C 296.902344 153.296875 296.863281 153.324219 296.816406 153.359375 C 296.644531 153.488281 296.414062 153.664062 296.242188 153.796875 C 296.15625 153.859375 296.042969 153.949219 295.957031 154.015625 C 295.785156 154.144531 295.554688 154.320312 295.382812 154.449219 C 295.210938 154.582031 294.984375 154.757812 294.8125 154.886719 C 294.726562 154.953125 294.609375 155.039062 294.523438 155.105469 C 294.351562 155.234375 294.121094 155.410156 293.949219 155.542969 C 293.777344 155.671875 293.550781 155.847656 293.378906 155.976562 C 293.292969 156.042969 293.175781 156.132812 293.089844 156.195312 C 292.917969 156.328125 292.691406 156.503906 292.519531 156.632812 C 292.347656 156.765625 292.117188 156.9375 291.945312 157.070312 C 291.859375 157.132812 291.742188 157.222656 291.660156 157.289062 C 291.484375 157.417969 291.257812 157.59375 291.085938 157.722656 C 289.082031 159.25 287.074219 160.777344 285.070312 162.304688 C 285.070312 162.304688 285.074219 162.304688 285.078125 162.304688 C 285.074219 162.304688 285.070312 162.304688 285.070312 162.304688 C 284.695312 162.597656 284.410156 162.886719 284.40625 162.886719 C 284.3125 162.988281 284.179688 163.117188 284.085938 163.21875 C 283.992188 163.320312 283.871094 163.464844 283.777344 163.570312 C 283.683594 163.675781 283.566406 163.828125 283.480469 163.941406 C 282.992188 164.570312 282.554688 165.273438 282.171875 166.03125 C 281.800781 166.78125 281.484375 167.59375 281.285156 168.320312 C 281.195312 168.652344 281.195312 168.652344 281.078125 169.234375 C 281.050781 169.367188 281.027344 169.546875 281.007812 169.679688 C 280.988281 169.8125 280.972656 169.988281 280.960938 170.121094 C 280.953125 170.25 280.949219 170.421875 280.945312 170.546875 C 280.945312 170.550781 280.945312 170.554688 280.945312 170.554688 C 280.945312 170.554688 280.945312 170.550781 280.945312 170.550781 C 280.945312 171.027344 280.945312 171.503906 280.945312 171.980469 C 280.945312 172 281.003906 172.050781 281.117188 172.128906 C 281.15625 172.15625 281.199219 172.183594 281.25 172.21875 C 281.199219 172.183594 281.15625 172.15625 281.117188 172.128906 C 281.003906 172.050781 280.945312 172 280.945312 171.980469 C 280.945312 173.394531 280.949219 174.808594 280.949219 176.222656 C 280.945312 176.535156 280.964844 176.722656 280.972656 176.773438 C 280.984375 176.84375 280.992188 176.9375 281.007812 177.007812 C 281.035156 177.140625 281.070312 177.316406 281.113281 177.441406 C 281.175781 177.617188 281.238281 177.796875 281.363281 178.011719 C 281.511719 178.257812 281.664062 178.425781 281.742188 178.5 C 281.910156 178.664062 282.191406 178.941406 283.289062 179.632812 C 284.398438 180.332031 285.585938 180.984375 286.09375 181.261719 L 287.15625 181.835938 C 288.535156 182.582031 289.449219 183.027344 289.96875 183.269531 C 290.585938 183.554688 290.8125 183.648438 291.1875 183.792969 C 291.476562 183.90625 291.753906 183.984375 291.824219 183.996094 C 291.9375 184.015625 292.089844 184.039062 292.207031 184.046875 C 292.261719 184.054688 292.335938 184.054688 292.390625 184.050781 C 292.464844 184.046875 292.691406 184.035156 293 183.9375 C 293.15625 183.886719 293.21875 183.859375 293.351562 183.804688 C 293.398438 183.785156 293.429688 183.769531 293.535156 183.71875 C 293.5625 183.707031 293.601562 183.6875 293.628906 183.671875 C 293.691406 183.644531 293.753906 183.601562 293.816406 183.566406 C 293.863281 183.542969 294.050781 183.433594 294.398438 183.175781 C 296.308594 181.71875 298.222656 180.261719 300.132812 178.808594 L 300.503906 178.527344 L 300.871094 178.246094 L 301.242188 177.960938 L 301.613281 177.679688 L 301.980469 177.398438 L 302.722656 176.835938 L 303.089844 176.554688 L 303.832031 175.992188 C 304.601562 175.402344 305.371094 174.816406 306.144531 174.230469 C 306.144531 174.226562 306.144531 174.222656 306.140625 174.21875 L 303.832031 175.980469 C 304.601562 175.390625 305.375 174.804688 306.140625 174.21875 C 306.144531 174.222656 306.144531 174.226562 306.144531 174.230469 C 307.617188 173.082031 308.589844 171.402344 309.039062 170.503906 C 309.300781 169.980469 309.667969 169.164062 309.929688 168.214844 C 310.015625 167.898438 310.015625 167.898438 310.136719 167.300781 C 310.164062 167.167969 310.1875 166.988281 310.207031 166.851562 C 310.226562 166.722656 310.242188 166.546875 310.253906 166.414062 C 310.261719 166.285156 310.265625 166.113281 310.269531 165.984375 C 310.269531 165.988281 310.265625 165.992188 310.261719 165.992188 C 310.265625 165.992188 310.269531 165.988281 310.269531 165.984375 " fill-opacity="1" fill-rule="nonzero"/><path fill="#e68798" d="M 269.921875 161.433594 C 268.910156 161.433594 267.925781 160.929688 267.347656 160.015625 C 266.460938 158.597656 266.886719 156.730469 268.308594 155.839844 C 277.222656 150.261719 284.191406 146.058594 284.261719 146.019531 C 285.695312 145.152344 287.558594 145.613281 288.421875 147.046875 C 289.289062 148.476562 288.828125 150.339844 287.394531 151.203125 C 287.324219 151.242188 280.394531 155.421875 271.527344 160.96875 C 271.027344 161.285156 270.472656 161.433594 269.921875 161.433594 " fill-opacity="1" fill-rule="nonzero"/><path fill="#ffc35a" d="M 310.199219 156.613281 C 308.875 146.320312 308.558594 134.082031 306.519531 124 C 305.488281 122.976562 303.1875 121.886719 302.285156 121.375 C 300.613281 120.515625 298.644531 119.4375 297.027344 118.941406 C 295.5 118.566406 294.386719 120.058594 293.25 120.835938 C 290.984375 122.664062 288.488281 124.511719 286.289062 126.386719 C 282.808594 129.8125 283.601562 134.5625 283.230469 138.996094 C 282.785156 147.851562 282.34375 156.714844 281.898438 165.570312 C 281.863281 166.460938 281.960938 167.300781 282.675781 167.917969 C 284.273438 169.171875 286.238281 170.097656 287.695312 170.875 C 290.035156 172.007812 291.285156 172.363281 295.296875 171.210938 C 298.363281 170.332031 300.695312 168.722656 303.226562 166.722656 C 306.714844 164.054688 310.367188 161.605469 310.199219 156.613281 " fill-opacity="1" fill-rule="nonzero"/><path fill="#ebb353" d="M 289.78125 138.675781 L 282.984375 143.882812 C 282.777344 148.035156 282.570312 152.191406 282.363281 156.347656 C 289.449219 149.03125 293.40625 137.75 293.40625 137.75 L 289.78125 138.675781 " fill-opacity="1" fill-rule="nonzero"/><path fill="#7f60ac" d="M 296.652344 170.140625 C 296.640625 170.144531 296.632812 170.152344 296.625 170.160156 C 296.488281 170.269531 296.320312 170.402344 296.167969 170.523438 C 296.34375 170.359375 296.507812 170.234375 296.652344 170.140625 " fill-opacity="1" fill-rule="nonzero"/><path fill="#e68798" d="M 299.769531 123.5 C 299.746094 124.816406 297.585938 126.0625 294.949219 126.285156 C 292.3125 126.503906 290.195312 125.617188 290.21875 124.300781 C 290.246094 122.984375 292.40625 121.738281 295.042969 121.515625 C 297.679688 121.292969 299.796875 122.183594 299.769531 123.5 " fill-opacity="1" fill-rule="nonzero"/><path fill="#e68798" d="M 295.777344 125.734375 C 293.886719 125.734375 292.351562 124.203125 292.351562 122.316406 L 292.351562 114.859375 C 292.351562 112.972656 293.886719 111.441406 295.777344 111.441406 C 297.667969 111.441406 299.199219 112.972656 299.199219 114.859375 L 299.199219 122.316406 C 299.199219 124.203125 297.667969 125.734375 295.777344 125.734375 " fill-opacity="1" fill-rule="nonzero"/><path fill="#ff95a9" d="M 307.742188 103.269531 C 308.515625 115.027344 295.339844 120.234375 289.636719 119.589844 C 283.714844 118.917969 282.25 111.03125 282.25 103.269531 C 282.25 93.652344 286.527344 88.503906 294.996094 88.503906 C 302.035156 88.503906 306.988281 91.8125 307.742188 103.269531 " fill-opacity="1" fill-rule="nonzero"/><path fill="#302245" d="M 313.886719 97.546875 C 313.886719 105.21875 307.65625 111.441406 299.96875 111.441406 C 292.285156 111.441406 286.054688 105.21875 286.054688 97.546875 C 286.054688 89.871094 292.285156 83.652344 299.96875 83.652344 C 307.65625 83.652344 313.886719 89.871094 313.886719 97.546875 " fill-opacity="1" fill-rule="nonzero"/><path fill="#302245" d="M 310.769531 93.199219 L 315.441406 91.320312 C 316.191406 91.015625 316.554688 90.164062 316.25 89.417969 C 315.949219 88.667969 315.097656 88.308594 314.347656 88.609375 L 309.675781 90.488281 C 308.925781 90.789062 308.5625 91.640625 308.867188 92.390625 C 309.167969 93.136719 310.019531 93.5 310.769531 93.199219 " fill-opacity="1" fill-rule="nonzero"/><path fill="#302245" d="M 311.300781 91.535156 L 313.457031 86.992188 C 313.800781 86.261719 313.492188 85.390625 312.761719 85.046875 C 312.03125 84.699219 311.15625 85.011719 310.8125 85.742188 L 308.65625 90.285156 C 308.3125 91.015625 308.625 91.886719 309.355469 92.230469 C 310.085938 92.578125 310.957031 92.265625 311.300781 91.535156 " fill-opacity="1" fill-rule="nonzero"/><path fill="#ff95a9" d="M 294.898438 104.902344 C 295.625 107.589844 294.746094 110.164062 292.933594 110.65625 C 291.117188 111.148438 289.054688 109.367188 288.324219 106.679688 C 287.597656 103.996094 288.476562 101.417969 290.292969 100.929688 C 292.105469 100.4375 294.167969 102.21875 294.898438 104.902344 " fill-opacity="1" fill-rule="nonzero"/><path fill="#302245" d="M 308.746094 88.636719 C 308.746094 88.636719 302.003906 79.730469 288.539062 81.980469 C 279.3125 83.523438 274.476562 79.730469 274.476562 79.730469 C 274.476562 79.730469 274.609375 84.539062 277.082031 85.949219 C 277.082031 85.949219 276.199219 86.390625 275.316406 85.949219 C 275.316406 85.949219 282.296875 103.691406 306.550781 95.285156 L 308.746094 88.636719 " fill-opacity="1" fill-rule="nonzero"/><path fill="#3e327a" d="M 288.554688 254.71875 C 286.042969 254.71875 284.003906 252.683594 284.003906 250.175781 L 284.003906 178.050781 C 284.003906 175.542969 286.042969 173.507812 288.554688 173.507812 C 291.066406 173.507812 293.101562 175.542969 293.101562 178.050781 L 293.101562 250.175781 C 293.101562 252.683594 291.066406 254.71875 288.554688 254.71875 " fill-opacity="1" fill-rule="nonzero"/><path fill="#ff95a9" d="M 269.851562 160.878906 C 269.207031 160.878906 268.5625 160.679688 268.011719 160.257812 C 266.679688 159.246094 266.425781 157.34375 267.441406 156.015625 C 273.824219 147.667969 278.875 141.289062 278.925781 141.226562 C 279.964844 139.914062 281.871094 139.691406 283.183594 140.730469 C 284.496094 141.765625 284.722656 143.671875 283.683594 144.980469 C 283.632812 145.046875 278.613281 151.382812 272.261719 159.691406 C 271.664062 160.46875 270.761719 160.878906 269.851562 160.878906 " fill-opacity="1" fill-rule="nonzero"/><path fill="#ffc35a" d="M 277.140625 149.046875 C 274.074219 146.890625 273.339844 142.664062 275.5 139.605469 L 282.3125 129.945312 C 284.46875 126.886719 288.703125 126.152344 291.765625 128.308594 C 294.832031 130.460938 295.566406 134.691406 293.40625 137.75 L 286.597656 147.40625 C 284.4375 150.46875 280.203125 151.199219 277.140625 149.046875 " fill-opacity="1" fill-rule="nonzero"/><g clip-path="url(#0131737b9b)"><path fill="#dfdbfc" d="M 232.929688 277.0625 C 232.929688 283.886719 223.933594 289.417969 212.839844 289.417969 C 201.746094 289.417969 192.753906 283.886719 192.753906 277.0625 C 192.753906 270.242188 201.746094 264.710938 212.839844 264.710938 C 223.933594 264.710938 232.929688 270.242188 232.929688 277.0625 " fill-opacity="1" fill-rule="nonzero"/></g><path fill="#ebb353" d="M 232.402344 241.109375 L 232.402344 253.492188 L 212.84375 256.550781 L 212.84375 244.167969 L 232.402344 241.109375 " fill-opacity="1" fill-rule="nonzero"/><path fill="#ffc35a" d="M 232.402344 241.109375 L 212.84375 244.167969 L 194.207031 239.410156 C 197.246094 234.933594 204.445312 231.789062 212.84375 231.789062 C 222.265625 231.789062 230.179688 235.75 232.402344 241.109375 " fill-opacity="1" fill-rule="nonzero"/><path fill="#ffcd75" d="M 212.84375 244.167969 L 212.84375 256.550781 L 194.207031 251.789062 L 194.207031 239.410156 L 212.84375 244.167969 " fill-opacity="1" fill-rule="nonzero"/><path fill="#e36196" d="M 194.207031 251.789062 C 194.140625 251.886719 194.078125 251.984375 194.015625 252.082031 L 192.679688 251.789062 L 192.679688 256.054688 C 192.667969 256.21875 192.660156 256.386719 192.660156 256.550781 C 192.660156 262.640625 199.824219 267.703125 209.257812 268.738281 L 212.84375 256.550781 L 194.207031 251.789062 " fill-opacity="1" fill-rule="nonzero"/><path fill="#ff94ae" d="M 212.84375 252.308594 L 209.257812 264.496094 C 199.824219 263.457031 192.660156 258.394531 192.660156 252.308594 C 192.660156 250.621094 193.210938 249.011719 194.207031 247.546875 L 212.84375 252.308594 " fill-opacity="1" fill-rule="nonzero"/><path fill="#6653bd" d="M 221.957031 252.625 L 214.378906 256.273438 L 214.335938 256.316406 L 212.84375 256.550781 L 212.261719 258.53125 L 209.257812 261.734375 L 209.257812 268.738281 C 210.421875 268.867188 211.617188 268.933594 212.84375 268.933594 C 223.933594 268.933594 232.933594 263.441406 233.019531 256.648438 L 233.023438 256.648438 L 233.023438 249.546875 L 221.957031 252.625 " fill-opacity="1" fill-rule="nonzero"/><path fill="#8f7bdc" d="M 233.023438 249.546875 C 233.023438 256.382812 223.988281 261.925781 212.84375 261.925781 C 211.617188 261.925781 210.421875 261.859375 209.257812 261.734375 L 212.84375 249.546875 L 232.402344 246.484375 C 232.804688 247.464844 233.023438 248.488281 233.023438 249.546875 " fill-opacity="1" fill-rule="nonzero"/><g clip-path="url(#942423c5b6)"><path fill="#c1d5e4" d="M 331.03125 158.441406 C 331.03125 156.988281 329.847656 155.816406 328.386719 155.816406 C 326.925781 155.816406 325.746094 156.988281 325.746094 158.441406 L 325.746094 224.066406 C 325.746094 225.515625 326.925781 226.691406 328.386719 226.691406 C 329.847656 226.691406 331.03125 225.515625 331.03125 224.066406 L 331.03125 158.441406 " fill-opacity="1" fill-rule="evenodd"/></g><path fill="#ffbd59" d="M 376.238281 163.320312 C 376.632812 162.953125 376.75 162.382812 376.550781 161.886719 C 376.347656 161.390625 375.863281 161.066406 375.328125 161.066406 C 365.070312 161.066406 333.875 161.066406 327.066406 161.066406 C 326.339844 161.066406 325.746094 161.65625 325.746094 162.378906 C 325.746094 167.1875 325.746094 183.820312 325.746094 188.628906 C 325.746094 189.351562 326.339844 189.941406 327.066406 189.941406 C 333.875 189.941406 365.070312 189.941406 375.328125 189.941406 C 375.863281 189.941406 376.347656 189.617188 376.550781 189.121094 C 376.75 188.625 376.632812 188.054688 376.238281 187.683594 C 372.878906 184.464844 366.855469 178.707031 364.492188 176.445312 C 364.234375 176.199219 364.082031 175.863281 364.082031 175.503906 C 364.082031 175.144531 364.234375 174.804688 364.492188 174.558594 C 366.855469 172.300781 372.878906 166.542969 376.238281 163.320312 " fill-opacity="1" fill-rule="evenodd"/><g clip-path="url(#cd3baa9596)"><path fill="#9bb9c1" d="M 334.996094 228.003906 C 334.996094 226.609375 334.4375 225.277344 333.445312 224.292969 C 332.457031 223.308594 331.113281 222.753906 329.707031 222.753906 C 328.835938 222.753906 327.9375 222.753906 327.066406 222.753906 C 325.660156 222.753906 324.320312 223.308594 323.328125 224.292969 C 322.335938 225.277344 321.78125 226.609375 321.78125 228.003906 C 321.78125 228.726562 322.375 229.316406 323.101562 229.316406 C 325.628906 229.316406 331.144531 229.316406 333.671875 229.316406 C 334.402344 229.316406 334.996094 228.726562 334.996094 228.003906 " fill-opacity="1" fill-rule="evenodd"/></g></svg>