<svg xmlns="http://www.w3.org/2000/svg" xmlns:xlink="http://www.w3.org/1999/xlink" width="115" zoomAndPan="magnify" viewBox="0 0 86.25 86.249996" height="115" preserveAspectRatio="xMidYMid meet" version="1.0"><defs><g/><clipPath id="685ab0df51"><path d="M 16.101562 8.550781 L 69.636719 8.550781 L 69.636719 62.085938 L 16.101562 62.085938 Z M 16.101562 8.550781 " clip-rule="nonzero"/></clipPath></defs><path fill="#5400cf" d="M 48.730469 22.628906 L 48.730469 48.011719 L 55.34375 41.394531 L 55.34375 12.609375 L 48.730469 12.609375 L 48.730469 22.628906 " fill-opacity="1" fill-rule="nonzero"/><path fill="#9e0be6" d="M 39.5625 50.558594 L 42.871094 53.867188 L 46.179688 50.558594 L 46.179688 23.695312 L 39.5625 23.695312 L 39.5625 50.558594 " fill-opacity="1" fill-rule="nonzero"/><g clip-path="url(#685ab0df51)"><path fill="#051d40" d="M 56.6875 22.367188 L 56.6875 28.691406 L 63.316406 35.320312 L 42.871094 55.765625 L 22.425781 35.320312 L 42.871094 14.875 L 47.386719 19.390625 L 47.386719 13.066406 L 42.871094 8.550781 L 16.105469 35.320312 L 42.871094 62.089844 L 69.640625 35.320312 L 56.6875 22.367188 " fill-opacity="1" fill-rule="nonzero"/></g><path fill="#d00edb" d="M 37.015625 48.011719 L 37.015625 31.386719 L 30.398438 31.386719 L 30.398438 41.394531 L 37.015625 48.011719 " fill-opacity="1" fill-rule="nonzero"/><g fill="#000000" fill-opacity="1"><g transform="translate(23.261543, 69.592428)"><g><path d="M 6.125 -2.828125 C 6.125 -2.671875 6.113281 -2.488281 6.09375 -2.28125 C 6.070312 -2.082031 6.023438 -1.878906 5.953125 -1.671875 C 5.890625 -1.472656 5.804688 -1.285156 5.703125 -1.109375 C 5.609375 -0.929688 5.492188 -0.769531 5.359375 -0.625 C 5.222656 -0.488281 5.085938 -0.375 4.953125 -0.28125 C 4.816406 -0.1875 4.691406 -0.113281 4.578125 -0.0625 L 5.984375 1.25 L 4.875 1.25 L 3.765625 0.1875 C 3.640625 0.207031 3.484375 0.21875 3.296875 0.21875 C 3.140625 0.21875 2.972656 0.207031 2.796875 0.1875 C 2.628906 0.164062 2.441406 0.117188 2.234375 0.046875 C 2.035156 -0.015625 1.832031 -0.113281 1.625 -0.25 C 1.414062 -0.394531 1.222656 -0.585938 1.046875 -0.828125 C 0.867188 -1.066406 0.726562 -1.351562 0.625 -1.6875 C 0.519531 -2.019531 0.46875 -2.390625 0.46875 -2.796875 C 0.46875 -3.253906 0.535156 -3.671875 0.671875 -4.046875 C 0.804688 -4.421875 1 -4.738281 1.25 -5 C 1.507812 -5.269531 1.816406 -5.472656 2.171875 -5.609375 C 2.535156 -5.742188 2.9375 -5.8125 3.375 -5.8125 C 3.78125 -5.8125 4.148438 -5.738281 4.484375 -5.59375 C 4.828125 -5.457031 5.117188 -5.257812 5.359375 -5 C 5.609375 -4.738281 5.796875 -4.421875 5.921875 -4.046875 C 6.054688 -3.679688 6.125 -3.273438 6.125 -2.828125 Z M 5.21875 -2.796875 C 5.21875 -3.148438 5.171875 -3.472656 5.078125 -3.765625 C 4.992188 -4.054688 4.878906 -4.289062 4.734375 -4.46875 C 4.585938 -4.65625 4.429688 -4.796875 4.265625 -4.890625 C 4.097656 -4.984375 3.929688 -5.046875 3.765625 -5.078125 C 3.597656 -5.117188 3.445312 -5.140625 3.3125 -5.140625 C 3.03125 -5.140625 2.769531 -5.082031 2.53125 -4.96875 C 2.289062 -4.863281 2.082031 -4.707031 1.90625 -4.5 C 1.738281 -4.289062 1.609375 -4.039062 1.515625 -3.75 C 1.421875 -3.457031 1.375 -3.144531 1.375 -2.8125 C 1.375 -2.457031 1.414062 -2.132812 1.5 -1.84375 C 1.59375 -1.5625 1.722656 -1.316406 1.890625 -1.109375 C 2.066406 -0.898438 2.273438 -0.738281 2.515625 -0.625 C 2.753906 -0.519531 3.019531 -0.46875 3.3125 -0.46875 C 3.582031 -0.46875 3.835938 -0.519531 4.078125 -0.625 C 4.316406 -0.738281 4.519531 -0.898438 4.6875 -1.109375 C 4.851562 -1.316406 4.984375 -1.5625 5.078125 -1.84375 C 5.171875 -2.132812 5.21875 -2.453125 5.21875 -2.796875 Z M 5.21875 -2.796875 "/></g></g></g><g fill="#000000" fill-opacity="1"><g transform="translate(29.852721, 69.592428)"><g><path d="M 5.296875 -2.453125 C 5.296875 -2.003906 5.238281 -1.609375 5.125 -1.265625 C 5.019531 -0.929688 4.863281 -0.648438 4.65625 -0.421875 C 4.457031 -0.203125 4.210938 -0.0390625 3.921875 0.0625 C 3.640625 0.164062 3.320312 0.21875 2.96875 0.21875 C 2.601562 0.21875 2.285156 0.164062 2.015625 0.0625 C 1.742188 -0.03125 1.515625 -0.179688 1.328125 -0.390625 C 1.140625 -0.597656 0.992188 -0.867188 0.890625 -1.203125 C 0.796875 -1.535156 0.75 -1.953125 0.75 -2.453125 L 0.75 -5.71875 L 1.59375 -5.71875 L 1.59375 -2.53125 C 1.59375 -2.21875 1.613281 -1.9375 1.65625 -1.6875 C 1.707031 -1.4375 1.785156 -1.21875 1.890625 -1.03125 C 1.992188 -0.851562 2.140625 -0.710938 2.328125 -0.609375 C 2.515625 -0.515625 2.742188 -0.46875 3.015625 -0.46875 C 3.285156 -0.46875 3.515625 -0.515625 3.703125 -0.609375 C 3.890625 -0.710938 4.035156 -0.851562 4.140625 -1.03125 C 4.242188 -1.21875 4.316406 -1.4375 4.359375 -1.6875 C 4.410156 -1.9375 4.4375 -2.21875 4.4375 -2.53125 L 4.4375 -5.71875 L 5.296875 -5.71875 Z M 5.296875 -2.453125 "/></g></g></g><g fill="#000000" fill-opacity="1"><g transform="translate(35.870757, 69.592428)"><g><path d="M 5.046875 0.125 L 4.4375 -1.34375 L 1.609375 -1.34375 L 1 0.125 L 0.09375 0.125 L 2.59375 -5.71875 L 3.453125 -5.71875 L 5.984375 0.125 Z M 3.390625 -3.9375 C 3.335938 -4.050781 3.269531 -4.21875 3.1875 -4.4375 C 3.113281 -4.664062 3.050781 -4.851562 3 -5 L 2.984375 -5 C 2.910156 -4.738281 2.785156 -4.382812 2.609375 -3.9375 L 1.875 -2.03125 L 4.15625 -2.03125 Z M 3.390625 -3.9375 "/></g></g></g><g fill="#000000" fill-opacity="1"><g transform="translate(41.950749, 69.592428)"><g><path d="M 4.3125 0.125 L 2.265625 -3.65625 C 2.222656 -3.738281 2.128906 -3.914062 1.984375 -4.1875 C 1.847656 -4.457031 1.71875 -4.738281 1.59375 -5.03125 L 1.578125 -5.03125 C 1.585938 -4.851562 1.59375 -4.59375 1.59375 -4.25 C 1.601562 -3.914062 1.609375 -3.628906 1.609375 -3.390625 L 1.609375 0.125 L 0.8125 0.125 L 0.8125 -5.71875 L 2.0625 -5.71875 L 4.015625 -2.03125 C 4.117188 -1.84375 4.226562 -1.628906 4.34375 -1.390625 C 4.46875 -1.148438 4.578125 -0.929688 4.671875 -0.734375 L 4.6875 -0.734375 C 4.664062 -0.921875 4.648438 -1.21875 4.640625 -1.625 C 4.628906 -2.03125 4.625 -2.367188 4.625 -2.640625 L 4.625 -5.71875 L 5.421875 -5.71875 L 5.421875 0.125 Z M 4.3125 0.125 "/></g></g></g><g fill="#000000" fill-opacity="1"><g transform="translate(48.177908, 69.592428)"><g><path d="M 1.9375 0.125 L 1.9375 -5 L 0.109375 -4.96875 L 0.109375 -5.71875 L 4.5625 -5.71875 L 4.5625 -4.96875 L 2.796875 -5 L 2.796875 0.125 Z M 1.9375 0.125 "/></g></g></g><g fill="#000000" fill-opacity="1"><g transform="translate(52.848277, 69.592428)"><g><path d="M 0.8125 0.125 L 0.8125 -5.71875 L 4.046875 -5.71875 L 4.046875 -5 L 1.65625 -5 L 1.65625 -3.25 L 3.875 -3.25 L 3.875 -2.546875 L 1.65625 -2.546875 L 1.65625 -0.59375 L 4.109375 -0.59375 L 4.109375 0.125 Z M 0.8125 0.125 "/></g></g></g><g fill="#000000" fill-opacity="1"><g transform="translate(57.549629, 69.592428)"><g><path d="M 0.296875 0.125 L 0.296875 -0.59375 C 1.109375 -1.769531 1.796875 -2.765625 2.359375 -3.578125 C 2.929688 -4.398438 3.273438 -4.875 3.390625 -5 L 0.375 -5 L 0.375 -5.71875 L 4.28125 -5.71875 L 4.28125 -4.9375 C 2.550781 -2.425781 1.53125 -0.976562 1.21875 -0.59375 L 4.359375 -0.59375 L 4.359375 0.125 Z M 0.296875 0.125 "/></g></g></g><g fill="#000000" fill-opacity="1"><g transform="translate(18.842851, 76.339995)"><g><path d="M 0.453125 0 L 2.097656 0 L 2.097656 -0.136719 L 0.601562 -0.136719 L 0.601562 -1.523438 L 1.820312 -1.523438 L 1.820312 -1.660156 L 0.601562 -1.660156 L 0.601562 -2.84375 L 2.050781 -2.84375 L 2.050781 -2.980469 L 0.453125 -2.980469 Z M 0.453125 0 "/></g></g></g><g fill="#000000" fill-opacity="1"><g transform="translate(21.445734, 76.339995)"><g><path d="M 0.894531 0.0546875 C 1.183594 0.0546875 1.453125 -0.105469 1.675781 -0.289062 L 1.6875 -0.289062 L 1.707031 0 L 1.832031 0 L 1.832031 -1.398438 C 1.832031 -1.839844 1.675781 -2.21875 1.164062 -2.21875 C 0.8125 -2.21875 0.511719 -2.035156 0.378906 -1.9375 L 0.453125 -1.820312 C 0.589844 -1.929688 0.851562 -2.082031 1.15625 -2.082031 C 1.605469 -2.082031 1.695312 -1.699219 1.683594 -1.351562 C 0.710938 -1.238281 0.269531 -1.015625 0.269531 -0.535156 C 0.269531 -0.125 0.558594 0.0546875 0.894531 0.0546875 Z M 0.90625 -0.0820312 C 0.644531 -0.0820312 0.421875 -0.207031 0.421875 -0.539062 C 0.421875 -0.902344 0.742188 -1.121094 1.683594 -1.222656 L 1.683594 -0.449219 C 1.398438 -0.207031 1.164062 -0.0820312 0.90625 -0.0820312 Z M 0.90625 -0.0820312 "/></g></g></g><g fill="#000000" fill-opacity="1"><g transform="translate(23.941875, 76.339995)"><g><path d="M 0.941406 0.0546875 C 1.394531 0.0546875 1.644531 -0.226562 1.644531 -0.546875 C 1.644531 -0.96875 1.273438 -1.074219 0.929688 -1.207031 C 0.667969 -1.304688 0.40625 -1.402344 0.40625 -1.664062 C 0.40625 -1.875 0.566406 -2.082031 0.921875 -2.082031 C 1.148438 -2.082031 1.304688 -1.992188 1.449219 -1.882812 L 1.535156 -1.996094 C 1.378906 -2.125 1.148438 -2.21875 0.9375 -2.21875 C 0.488281 -2.21875 0.253906 -1.953125 0.253906 -1.65625 C 0.253906 -1.28125 0.625 -1.15625 0.953125 -1.039062 C 1.207031 -0.949219 1.496094 -0.820312 1.496094 -0.539062 C 1.496094 -0.292969 1.308594 -0.0820312 0.949219 -0.0820312 C 0.628906 -0.0820312 0.425781 -0.207031 0.246094 -0.359375 L 0.152344 -0.242188 C 0.34375 -0.0820312 0.617188 0.0546875 0.941406 0.0546875 Z M 0.941406 0.0546875 "/></g></g></g><g fill="#000000" fill-opacity="1"><g transform="translate(26.047992, 76.339995)"><g><path d="M 0.304688 1 C 0.675781 1 0.894531 0.640625 1.003906 0.304688 L 1.867188 -2.164062 L 1.714844 -2.164062 L 1.230469 -0.75 C 1.171875 -0.566406 1.097656 -0.335938 1.027344 -0.144531 L 1.003906 -0.144531 C 0.921875 -0.335938 0.832031 -0.566406 0.761719 -0.75 L 0.21875 -2.164062 L 0.0546875 -2.164062 L 0.949219 0.0507812 L 0.886719 0.25 C 0.769531 0.59375 0.582031 0.859375 0.3125 0.859375 C 0.246094 0.859375 0.175781 0.839844 0.132812 0.820312 L 0.09375 0.957031 C 0.148438 0.984375 0.230469 1 0.304688 1 Z M 0.304688 1 "/></g></g></g><g fill="#000000" fill-opacity="1"><g transform="translate(28.264959, 76.339995)"><g/></g></g><g fill="#000000" fill-opacity="1"><g transform="translate(29.710094, 76.339995)"><g><path d="M 0.414062 -1.5 C 0.414062 -2.351562 0.835938 -2.890625 1.464844 -2.890625 C 2.09375 -2.890625 2.515625 -2.351562 2.515625 -1.5 C 2.515625 -0.644531 2.09375 -0.0820312 1.464844 -0.0820312 C 0.835938 -0.0820312 0.414062 -0.644531 0.414062 -1.5 Z M 2.636719 0.5 C 2.566406 0.519531 2.476562 0.539062 2.339844 0.539062 C 1.953125 0.539062 1.679688 0.359375 1.546875 0.0507812 C 2.207031 0.00390625 2.675781 -0.59375 2.675781 -1.5 C 2.675781 -2.4375 2.171875 -3.035156 1.464844 -3.035156 C 0.757812 -3.035156 0.253906 -2.4375 0.253906 -1.5 C 0.253906 -0.597656 0.714844 0 1.371094 0.0507812 C 1.511719 0.414062 1.839844 0.691406 2.324219 0.691406 C 2.464844 0.691406 2.597656 0.664062 2.671875 0.640625 Z M 2.636719 0.5 "/></g></g></g><g fill="#000000" fill-opacity="1"><g transform="translate(32.937009, 76.339995)"><g><path d="M 1.046875 0.0546875 C 1.347656 0.0546875 1.574219 -0.117188 1.789062 -0.371094 L 1.796875 -0.371094 L 1.816406 0 L 1.941406 0 L 1.941406 -2.164062 L 1.792969 -2.164062 L 1.792969 -0.546875 C 1.527344 -0.226562 1.324219 -0.0820312 1.058594 -0.0820312 C 0.695312 -0.0820312 0.542969 -0.3125 0.542969 -0.789062 L 0.542969 -2.164062 L 0.394531 -2.164062 L 0.394531 -0.773438 C 0.394531 -0.210938 0.601562 0.0546875 1.046875 0.0546875 Z M 1.046875 0.0546875 "/></g></g></g><g fill="#000000" fill-opacity="1"><g transform="translate(35.60147, 76.339995)"><g><path d="M 0.894531 0.0546875 C 1.183594 0.0546875 1.453125 -0.105469 1.675781 -0.289062 L 1.6875 -0.289062 L 1.707031 0 L 1.832031 0 L 1.832031 -1.398438 C 1.832031 -1.839844 1.675781 -2.21875 1.164062 -2.21875 C 0.8125 -2.21875 0.511719 -2.035156 0.378906 -1.9375 L 0.453125 -1.820312 C 0.589844 -1.929688 0.851562 -2.082031 1.15625 -2.082031 C 1.605469 -2.082031 1.695312 -1.699219 1.683594 -1.351562 C 0.710938 -1.238281 0.269531 -1.015625 0.269531 -0.535156 C 0.269531 -0.125 0.558594 0.0546875 0.894531 0.0546875 Z M 0.90625 -0.0820312 C 0.644531 -0.0820312 0.421875 -0.207031 0.421875 -0.539062 C 0.421875 -0.902344 0.742188 -1.121094 1.683594 -1.222656 L 1.683594 -0.449219 C 1.398438 -0.207031 1.164062 -0.0820312 0.90625 -0.0820312 Z M 0.90625 -0.0820312 "/></g></g></g><g fill="#000000" fill-opacity="1"><g transform="translate(38.097611, 76.339995)"><g><path d="M 0.429688 0 L 0.578125 0 L 0.578125 -1.65625 C 0.855469 -1.9375 1.050781 -2.082031 1.316406 -2.082031 C 1.6875 -2.082031 1.839844 -1.847656 1.839844 -1.371094 L 1.839844 0 L 1.988281 0 L 1.988281 -1.390625 C 1.988281 -1.949219 1.777344 -2.21875 1.335938 -2.21875 C 1.035156 -2.21875 0.808594 -2.042969 0.585938 -1.820312 L 0.578125 -1.820312 L 0.554688 -2.164062 L 0.429688 -2.164062 Z M 0.429688 0 "/></g></g></g><g fill="#000000" fill-opacity="1"><g transform="translate(40.774393, 76.339995)"><g><path d="M 0.988281 0.0546875 C 1.0625 0.0546875 1.199219 0.015625 1.324219 -0.0273438 L 1.277344 -0.152344 C 1.199219 -0.113281 1.082031 -0.0820312 1 -0.0820312 C 0.6875 -0.0820312 0.625 -0.273438 0.625 -0.554688 L 0.625 -2.027344 L 1.265625 -2.027344 L 1.265625 -2.164062 L 0.625 -2.164062 L 0.625 -2.796875 L 0.496094 -2.796875 L 0.480469 -2.164062 L 0.136719 -2.144531 L 0.136719 -2.027344 L 0.480469 -2.027344 L 0.480469 -0.574219 C 0.480469 -0.195312 0.585938 0.0546875 0.988281 0.0546875 Z M 0.988281 0.0546875 "/></g></g></g><g fill="#000000" fill-opacity="1"><g transform="translate(42.441221, 76.339995)"><g><path d="M 0.269531 0.480469 C 0.507812 0.335938 0.695312 0.0859375 0.695312 -0.226562 C 0.695312 -0.394531 0.617188 -0.507812 0.492188 -0.507812 C 0.40625 -0.507812 0.324219 -0.457031 0.324219 -0.339844 C 0.324219 -0.234375 0.398438 -0.175781 0.492188 -0.175781 C 0.507812 -0.175781 0.53125 -0.175781 0.546875 -0.179688 C 0.542969 0.0742188 0.40625 0.257812 0.21875 0.371094 Z M 0.269531 0.480469 "/></g></g></g><g fill="#000000" fill-opacity="1"><g transform="translate(43.685183, 76.339995)"><g/></g></g><g fill="#000000" fill-opacity="1"><g transform="translate(45.130317, 76.339995)"><g><path d="M 0.453125 0 L 2.097656 0 L 2.097656 -0.136719 L 0.601562 -0.136719 L 0.601562 -1.523438 L 1.820312 -1.523438 L 1.820312 -1.660156 L 0.601562 -1.660156 L 0.601562 -2.84375 L 2.050781 -2.84375 L 2.050781 -2.980469 L 0.453125 -2.980469 Z M 0.453125 0 "/></g></g></g><g fill="#000000" fill-opacity="1"><g transform="translate(47.733199, 76.339995)"><g><path d="M 0.894531 0.0546875 C 1.183594 0.0546875 1.453125 -0.105469 1.675781 -0.289062 L 1.6875 -0.289062 L 1.707031 0 L 1.832031 0 L 1.832031 -1.398438 C 1.832031 -1.839844 1.675781 -2.21875 1.164062 -2.21875 C 0.8125 -2.21875 0.511719 -2.035156 0.378906 -1.9375 L 0.453125 -1.820312 C 0.589844 -1.929688 0.851562 -2.082031 1.15625 -2.082031 C 1.605469 -2.082031 1.695312 -1.699219 1.683594 -1.351562 C 0.710938 -1.238281 0.269531 -1.015625 0.269531 -0.535156 C 0.269531 -0.125 0.558594 0.0546875 0.894531 0.0546875 Z M 0.90625 -0.0820312 C 0.644531 -0.0820312 0.421875 -0.207031 0.421875 -0.539062 C 0.421875 -0.902344 0.742188 -1.121094 1.683594 -1.222656 L 1.683594 -0.449219 C 1.398438 -0.207031 1.164062 -0.0820312 0.90625 -0.0820312 Z M 0.90625 -0.0820312 "/></g></g></g><g fill="#000000" fill-opacity="1"><g transform="translate(50.22934, 76.339995)"><g><path d="M 0.941406 0.0546875 C 1.394531 0.0546875 1.644531 -0.226562 1.644531 -0.546875 C 1.644531 -0.96875 1.273438 -1.074219 0.929688 -1.207031 C 0.667969 -1.304688 0.40625 -1.402344 0.40625 -1.664062 C 0.40625 -1.875 0.566406 -2.082031 0.921875 -2.082031 C 1.148438 -2.082031 1.304688 -1.992188 1.449219 -1.882812 L 1.535156 -1.996094 C 1.378906 -2.125 1.148438 -2.21875 0.9375 -2.21875 C 0.488281 -2.21875 0.253906 -1.953125 0.253906 -1.65625 C 0.253906 -1.28125 0.625 -1.15625 0.953125 -1.039062 C 1.207031 -0.949219 1.496094 -0.820312 1.496094 -0.539062 C 1.496094 -0.292969 1.308594 -0.0820312 0.949219 -0.0820312 C 0.628906 -0.0820312 0.425781 -0.207031 0.246094 -0.359375 L 0.152344 -0.242188 C 0.34375 -0.0820312 0.617188 0.0546875 0.941406 0.0546875 Z M 0.941406 0.0546875 "/></g></g></g><g fill="#000000" fill-opacity="1"><g transform="translate(52.335457, 76.339995)"><g><path d="M 0.304688 1 C 0.675781 1 0.894531 0.640625 1.003906 0.304688 L 1.867188 -2.164062 L 1.714844 -2.164062 L 1.230469 -0.75 C 1.171875 -0.566406 1.097656 -0.335938 1.027344 -0.144531 L 1.003906 -0.144531 C 0.921875 -0.335938 0.832031 -0.566406 0.761719 -0.75 L 0.21875 -2.164062 L 0.0546875 -2.164062 L 0.949219 0.0507812 L 0.886719 0.25 C 0.769531 0.59375 0.582031 0.859375 0.3125 0.859375 C 0.246094 0.859375 0.175781 0.839844 0.132812 0.820312 L 0.09375 0.957031 C 0.148438 0.984375 0.230469 1 0.304688 1 Z M 0.304688 1 "/></g></g></g><g fill="#000000" fill-opacity="1"><g transform="translate(54.552423, 76.339995)"><g/></g></g><g fill="#000000" fill-opacity="1"><g transform="translate(55.997558, 76.339995)"><g><path d="M 0.453125 0 L 2 0 L 2 -0.136719 L 0.601562 -0.136719 L 0.601562 -2.980469 L 0.453125 -2.980469 Z M 0.453125 0 "/></g></g></g><g fill="#000000" fill-opacity="1"><g transform="translate(58.378741, 76.339995)"><g><path d="M 1.230469 0.0546875 C 1.550781 0.0546875 1.738281 -0.0546875 1.902344 -0.152344 L 1.835938 -0.277344 C 1.671875 -0.160156 1.484375 -0.0820312 1.238281 -0.0820312 C 0.730469 -0.0820312 0.398438 -0.5 0.398438 -1.070312 L 1.984375 -1.070312 C 1.992188 -1.125 1.992188 -1.175781 1.992188 -1.21875 C 1.992188 -1.859375 1.675781 -2.21875 1.175781 -2.21875 C 0.695312 -2.21875 0.242188 -1.78125 0.242188 -1.074219 C 0.242188 -0.371094 0.6875 0.0546875 1.230469 0.0546875 Z M 0.398438 -1.207031 C 0.445312 -1.753906 0.789062 -2.082031 1.175781 -2.082031 C 1.582031 -2.082031 1.847656 -1.792969 1.847656 -1.207031 Z M 0.398438 -1.207031 "/></g></g></g><g fill="#000000" fill-opacity="1"><g transform="translate(60.837932, 76.339995)"><g><path d="M 0.894531 0.0546875 C 1.183594 0.0546875 1.453125 -0.105469 1.675781 -0.289062 L 1.6875 -0.289062 L 1.707031 0 L 1.832031 0 L 1.832031 -1.398438 C 1.832031 -1.839844 1.675781 -2.21875 1.164062 -2.21875 C 0.8125 -2.21875 0.511719 -2.035156 0.378906 -1.9375 L 0.453125 -1.820312 C 0.589844 -1.929688 0.851562 -2.082031 1.15625 -2.082031 C 1.605469 -2.082031 1.695312 -1.699219 1.683594 -1.351562 C 0.710938 -1.238281 0.269531 -1.015625 0.269531 -0.535156 C 0.269531 -0.125 0.558594 0.0546875 0.894531 0.0546875 Z M 0.90625 -0.0820312 C 0.644531 -0.0820312 0.421875 -0.207031 0.421875 -0.539062 C 0.421875 -0.902344 0.742188 -1.121094 1.683594 -1.222656 L 1.683594 -0.449219 C 1.398438 -0.207031 1.164062 -0.0820312 0.90625 -0.0820312 Z M 0.90625 -0.0820312 "/></g></g></g><g fill="#000000" fill-opacity="1"><g transform="translate(63.334076, 76.339995)"><g><path d="M 0.429688 0 L 0.578125 0 L 0.578125 -1.496094 C 0.746094 -1.921875 0.984375 -2.074219 1.179688 -2.074219 C 1.265625 -2.074219 1.300781 -2.066406 1.371094 -2.035156 L 1.40625 -2.171875 C 1.335938 -2.207031 1.273438 -2.21875 1.199219 -2.21875 C 0.941406 -2.21875 0.730469 -2.019531 0.585938 -1.757812 L 0.578125 -1.757812 L 0.554688 -2.164062 L 0.429688 -2.164062 Z M 0.429688 0 "/></g></g></g><g fill="#000000" fill-opacity="1"><g transform="translate(65.02143, 76.339995)"><g><path d="M 0.429688 0 L 0.578125 0 L 0.578125 -1.65625 C 0.855469 -1.9375 1.050781 -2.082031 1.316406 -2.082031 C 1.6875 -2.082031 1.839844 -1.847656 1.839844 -1.371094 L 1.839844 0 L 1.988281 0 L 1.988281 -1.390625 C 1.988281 -1.949219 1.777344 -2.21875 1.335938 -2.21875 C 1.035156 -2.21875 0.808594 -2.042969 0.585938 -1.820312 L 0.578125 -1.820312 L 0.554688 -2.164062 L 0.429688 -2.164062 Z M 0.429688 0 "/></g></g></g></svg>